<svg width="19" height="19" viewBox="0 0 19 19" fill="none" xmlns="http://www.w3.org/2000/svg">
<path d="M12.8172 1.58301H6.18308C3.30141 1.58301 1.5835 3.30092 1.5835 6.18259V12.8088C1.5835 15.6984 3.30141 17.4163 6.18308 17.4163H12.8093C15.691 17.4163 17.4089 15.6984 17.4089 12.8168V6.18259C17.4168 3.30092 15.6989 1.58301 12.8172 1.58301ZM14.2502 10.0934H10.0939V14.2497C10.0939 14.5743 9.82475 14.8434 9.50016 14.8434C9.17558 14.8434 8.90641 14.5743 8.90641 14.2497V10.0934H4.75016C4.42558 10.0934 4.15641 9.82426 4.15641 9.49967C4.15641 9.17509 4.42558 8.90592 4.75016 8.90592H8.90641V4.74967C8.90641 4.42509 9.17558 4.15592 9.50016 4.15592C9.82475 4.15592 10.0939 4.42509 10.0939 4.74967V8.90592H14.2502C14.5747 8.90592 14.8439 9.17509 14.8439 9.49967C14.8439 9.82426 14.5747 10.0934 14.2502 10.0934Z" fill="#292D32"/>
</svg>
