<svg width="24" height="24" viewBox="0 0 24 24" fill="none" xmlns="http://www.w3.org/2000/svg">
<path d="M13.5 21.0001V13.5001C13.5 13.0859 13.8358 12.7501 14.25 12.7501H17.25C17.6642 12.7501 18 13.0859 18 13.5001V21.0001M13.5 21.0001H2.36088M13.5 21.0001H18M18 21.0001H21.6391M20.25 21.0001V9.34888M3.75 21.0001V9.34913M3.75 9.34913C4.89729 10.0123 6.38977 9.85306 7.37132 8.87151C7.41594 8.82689 7.45886 8.78122 7.50008 8.73456C8.04979 9.35733 8.85402 9.7501 9.75 9.7501C10.646 9.7501 11.4503 9.35729 12 8.73447C12.5497 9.35729 13.354 9.7501 14.25 9.7501C15.1459 9.7501 15.9501 9.35737 16.4998 8.73468C16.541 8.78126 16.5838 8.82687 16.6284 8.87142C17.61 9.85305 19.1027 10.0122 20.25 9.34888M3.75 9.34913C3.52788 9.22074 3.31871 9.06154 3.12868 8.87151C1.95711 7.69994 1.95711 5.80044 3.12868 4.62887L4.31797 3.43958C4.59927 3.15828 4.9808 3.00024 5.37863 3.00024H18.6212C19.019 3.00024 19.4005 3.15828 19.6818 3.43958L20.871 4.62878C22.0426 5.80036 22.0426 7.69985 20.871 8.87142C20.6811 9.06137 20.472 9.22052 20.25 9.34888M6.75 18.0001H10.5C10.9142 18.0001 11.25 17.6643 11.25 17.2501V13.5001C11.25 13.0859 10.9142 12.7501 10.5 12.7501H6.75C6.33579 12.7501 6 13.0859 6 13.5001V17.2501C6 17.6643 6.33579 18.0001 6.75 18.0001Z" stroke="#0F172A" stroke-width="1.5" stroke-linecap="round" stroke-linejoin="round"/>
</svg>
