<svg width="14" height="14" viewBox="0 0 14 14" fill="none" xmlns="http://www.w3.org/2000/svg">
<g id="heroicons-mini/gift">
<g id="Subtract">
<path fill-rule="evenodd" clip-rule="evenodd" d="M9.80003 4.1999C10.0197 3.90742 10.1499 3.54386 10.1499 3.1499C10.1499 2.1834 9.3664 1.3999 8.3999 1.3999C7.82744 1.3999 7.31918 1.67477 6.9999 2.09973C6.68062 1.67477 6.17236 1.3999 5.5999 1.3999C4.6334 1.3999 3.8499 2.1834 3.8499 3.1499C3.8499 3.54386 3.98008 3.90742 4.19977 4.1999H2.2749C1.79165 4.1999 1.3999 4.59165 1.3999 5.0749V5.4249C1.3999 5.90815 1.79165 6.2999 2.2749 6.2999H6.4749V4.1999H7.5249V6.2999H11.7249C12.2082 6.2999 12.5999 5.90815 12.5999 5.4249V5.0749C12.5999 4.59165 12.2082 4.1999 11.7249 4.1999H9.80003ZM9.09991 3.1499C9.09991 3.5365 8.7865 3.8499 8.3999 3.8499H7.6999L7.6999 3.1499C7.6999 2.7633 8.01331 2.4499 8.3999 2.4499C8.7865 2.4499 9.09991 2.7633 9.09991 3.1499ZM4.8999 3.1499C4.8999 3.5365 5.2133 3.8499 5.5999 3.8499H6.2999V3.1499C6.2999 2.7633 5.9865 2.4499 5.5999 2.4499C5.2133 2.4499 4.8999 2.7633 4.8999 3.1499Z" fill="#0F172A"/>
<path d="M6.4749 7.3499H2.0999V10.6749C2.0999 11.7381 2.96175 12.5999 4.0249 12.5999H6.4749V7.3499Z" fill="#0F172A"/>
<path d="M7.5249 12.5999V7.3499H11.8999V10.6749C11.8999 11.7381 11.0381 12.5999 9.9749 12.5999H7.5249Z" fill="#0F172A"/>
</g>
</g>
</svg>
