<svg width="22" height="22" viewBox="0 0 22 22" fill="none" xmlns="http://www.w3.org/2000/svg">
<mask id="mask0_186_5296" style="mask-type:luminance" maskUnits="userSpaceOnUse" x="0" y="0" width="22" height="22">
<path d="M22 0H0V22H22V0Z" fill="white"/>
</mask>
<g mask="url(#mask0_186_5296)">
<path d="M4.87566 13.2949L4.10988 16.1537L1.31093 16.2129C0.474461 14.6614 0 12.8863 0 11C0 9.17589 0.443609 7.45577 1.22994 5.94116L3.72238 6.39801L4.81396 8.8749C4.5855 9.54096 4.46097 10.256 4.46097 11C4.46106 11.8075 4.60732 12.5811 4.87566 13.2949Z" fill="#FBBB00"/>
<path d="M21.8077 8.94507C21.934 9.61048 21.9999 10.2977 21.9999 11C21.9999 11.7875 21.9171 12.5557 21.7594 13.2967C21.2239 15.8183 19.8247 18.0201 17.8864 19.5782L14.7472 19.4175L14.303 16.6445C15.5891 15.8902 16.5943 14.7098 17.1237 13.2967H11.2417V8.94507H17.2095H21.8077Z" fill="#518EF8"/>
<path d="M17.886 19.5776C16.0009 21.0928 13.6068 22 11.0001 22C6.81104 22 3.16897 19.6586 1.31104 16.2129L4.87577 13.2949C5.80472 15.7741 8.19631 17.539 11.0001 17.539C12.2052 17.539 13.3343 17.2132 14.3031 16.6445L17.886 19.5776Z" fill="#28B446"/>
<path d="M18.0214 2.53241L14.4578 5.44981C13.4551 4.82307 12.2699 4.46102 11.0001 4.46102C8.13278 4.46102 5.69645 6.30682 4.81405 8.87494L1.23058 5.9412C3.06131 2.41154 6.74872 0 11.0001 0C13.6691 0 16.1163 0.950727 18.0214 2.53241Z" fill="#F14336"/>
</g>
</svg>
