<svg width="24" height="24" viewBox="0 0 24 24" fill="none" xmlns="http://www.w3.org/2000/svg">
<path fill-rule="evenodd" clip-rule="evenodd" d="M11.6282 22.7195L11.6316 22.721C11.8681 22.8239 12.0001 22.7999 12.0001 22.7999C12.0001 22.7999 12.1321 22.8239 12.3696 22.7206L12.372 22.7195L12.3789 22.7164L12.4007 22.7063C12.4187 22.6979 12.4437 22.6862 12.4752 22.671C12.5381 22.6406 12.6272 22.5966 12.7385 22.5385C12.961 22.4225 13.2736 22.2501 13.6461 22.0193C14.3896 21.5585 15.3809 20.859 16.3747 19.9012C18.3627 17.985 20.4001 14.9909 20.4001 10.7999C20.4001 6.16071 16.6393 2.3999 12.0001 2.3999C7.36091 2.3999 3.6001 6.16071 3.6001 10.7999C3.6001 14.9909 5.6375 17.985 7.62552 19.9012C8.61926 20.859 9.61062 21.5585 10.3541 22.0193C10.7266 22.2501 11.0392 22.4225 11.2617 22.5385C11.373 22.5966 11.462 22.6406 11.525 22.671C11.5565 22.6862 11.5815 22.6979 11.5995 22.7063L11.6213 22.7164L11.6282 22.7195ZM12.0001 13.4999C13.4913 13.4999 14.7001 12.2911 14.7001 10.7999C14.7001 9.30873 13.4913 8.0999 12.0001 8.0999C10.5089 8.0999 9.3001 9.30873 9.3001 10.7999C9.3001 12.2911 10.5089 13.4999 12.0001 13.4999Z" fill="#0F172A"/>
</svg>
