<svg width="15" height="15" viewBox="0 0 15 15" fill="none" xmlns="http://www.w3.org/2000/svg">
<path d="M13.1685 3.26875C12.1623 3.16875 11.156 3.09375 10.1435 3.0375V3.03125L10.006 2.21875C9.91229 1.64375 9.77479 0.78125 8.31229 0.78125H6.67479C5.21854 0.78125 5.08104 1.60625 4.98104 2.2125L4.84979 3.0125C4.26854 3.05 3.68729 3.0875 3.10604 3.14375L1.83104 3.26875C1.56854 3.29375 1.38104 3.525 1.40604 3.78125C1.43104 4.0375 1.65604 4.225 1.91854 4.2L3.19354 4.075C6.46854 3.75 9.76854 3.875 13.081 4.20625C13.0998 4.20625 13.1123 4.20625 13.131 4.20625C13.3685 4.20625 13.5748 4.025 13.5998 3.78125C13.6185 3.525 13.431 3.29375 13.1685 3.26875Z" fill="#F42200"/>
<path d="M12.0188 5.0875C11.8688 4.93125 11.6626 4.84375 11.4501 4.84375H3.55009C3.33759 4.84375 3.12509 4.93125 2.98134 5.0875C2.83759 5.24375 2.75634 5.45625 2.76884 5.675L3.15634 12.0875C3.22509 13.0375 3.31259 14.225 5.49384 14.225H9.50634C11.6876 14.225 11.7751 13.0437 11.8438 12.0875L12.2313 5.68125C12.2438 5.45625 12.1626 5.24375 12.0188 5.0875ZM8.53759 11.0938H6.45634C6.20009 11.0938 5.98759 10.8812 5.98759 10.625C5.98759 10.3688 6.20009 10.1562 6.45634 10.1562H8.53759C8.79384 10.1562 9.00634 10.3688 9.00634 10.625C9.00634 10.8812 8.79384 11.0938 8.53759 11.0938ZM9.06259 8.59375H5.93759C5.68134 8.59375 5.46884 8.38125 5.46884 8.125C5.46884 7.86875 5.68134 7.65625 5.93759 7.65625H9.06259C9.31884 7.65625 9.53134 7.86875 9.53134 8.125C9.53134 8.38125 9.31884 8.59375 9.06259 8.59375Z" fill="#F42200"/>
</svg>
