<svg width="300" height="220" viewBox="0 0 300 220" fill="none" xmlns="http://www.w3.org/2000/svg">
<path d="M149.809 117.834C150.171 117.319 150.319 116.683 150.222 116.06C150.125 115.437 149.791 114.877 149.29 114.499C149.187 114.423 149.078 114.357 148.964 114.3L150.041 97.8215L144.561 98.7784L145.782 115.543C145.583 116.037 145.553 116.583 145.695 117.097C145.837 117.61 146.143 118.062 146.567 118.381C146.81 118.561 147.086 118.69 147.378 118.763C147.671 118.835 147.974 118.848 148.272 118.802C148.57 118.756 148.855 118.651 149.113 118.494C149.37 118.337 149.595 118.13 149.773 117.885C149.785 117.868 149.797 117.851 149.809 117.834Z" fill="#A0616A"/>
<path d="M184.084 192.709L180.413 192.709L178.666 178.444L184.085 178.444L184.084 192.709Z" fill="#A0616A"/>
<path d="M184.212 196.567L172.922 196.567V196.423C172.922 195.249 173.385 194.123 174.209 193.293C175.033 192.463 176.151 191.996 177.316 191.996L179.379 190.42L183.227 191.997L184.213 191.997L184.212 196.567Z" fill="#2F2E41"/>
<path d="M175.954 187.196L172.817 189.118L163.965 177.845L168.595 175.009L175.954 187.196Z" fill="#A0616A"/>
<path d="M178.054 190.425L168.407 196.334L168.333 196.211C167.728 195.208 167.542 194.004 167.818 192.864C168.094 191.723 168.808 190.739 169.804 190.129L170.753 187.703L174.854 187.036L175.696 186.52L178.054 190.425Z" fill="#2F2E41"/>
<path d="M183.369 110.897C183.369 110.897 186.404 116.971 185.223 119.861C184.042 122.751 186.192 145.142 184.966 146.135C183.74 147.128 182.951 146.333 184.643 148.038C186.336 149.742 187.077 147.875 186.707 150.489C186.336 153.104 184.111 186.347 184.111 186.347L179.033 186.474C179.033 186.474 172.615 170.286 173.728 159.08L167.375 128.221C167.375 128.221 166.46 133.719 166.385 135.008C166.311 136.296 165.569 136.669 165.199 136.669C163.343 136.669 163.914 136.337 164.185 138.184C164.457 140.031 161.135 154.815 161.135 154.815L172.244 180.744L168.536 184.479L149.32 156.168L145.636 127.384C145.636 127.384 144.614 124.496 145.636 124.42C146.657 124.343 147.235 124.67 146.946 123.573C146.657 122.476 152.59 104.174 152.59 104.174L183.369 110.897Z" fill="#2F2E41"/>
<path d="M185.222 111.644C184.365 113.642 181.447 111.812 174.839 112.391C174.075 112.458 173.322 112.492 172.573 112.499C168.142 112.548 164 111.7 160.647 111.449C158.233 111.266 156.227 111.393 154.814 112.391C151.106 115.005 149.637 106.915 149.637 106.915C149.479 104.776 149.993 102.641 151.106 100.812C152.96 97.8236 154.859 90.7231 152.218 88.1123C149.578 85.5014 149.296 81.3927 150.364 80.2685C151.432 79.1442 154.94 56.6624 154.443 53.0019C154.05 50.1147 158.478 49.1883 160.362 48.9269C160.866 48.8559 161.189 48.8335 161.189 48.8335L165.568 49.6403L171.872 50.7608L176.949 50.8579C176.949 50.8579 177.019 50.8916 177.153 50.9513C179.462 52.0518 181.667 53.3634 183.739 54.8695C186.735 57.1442 184.521 91.0966 184.521 91.0966C184.521 91.0966 184.11 101.208 186.335 103.426C188.559 105.645 186.079 109.645 185.222 111.644Z" fill="#3F3D56"/>
<path d="M163.343 51.0654L154.814 51.4389C154.814 51.4389 143.318 74.5968 144.801 76.0909C146.285 77.585 147.8 76.7368 145.93 78.6549C144.06 80.5731 142.206 79.826 143.318 81.3201C144.431 82.8142 145.914 81.133 144.431 83.2809C142.947 85.4287 144.014 102.679 144.014 102.679H149.88C149.88 102.679 154.026 88.1875 153.678 86.4346C153.331 84.6817 153.285 83.1835 153.678 82.6253C154.072 82.0671 163.343 51.0654 163.343 51.0654Z" fill="#3F3D56"/>
<path d="M168.599 43.4586C173.32 43.4586 177.148 39.6031 177.148 34.847C177.148 30.0909 173.32 26.2354 168.599 26.2354C163.877 26.2354 160.049 30.0909 160.049 34.847C160.049 39.6031 163.877 43.4586 168.599 43.4586Z" fill="#A0616A"/>
<path d="M175.261 42.2634L171.872 42.9171C171.872 42.9171 175.024 37.7924 174.838 35.4468C174.653 33.1011 172.117 32.2607 172.117 32.2607C172.117 32.2607 170.711 32.567 169.232 32.7388C169.054 32.2362 168.824 31.7541 168.545 31.3008C168.491 31.8861 168.233 32.4334 167.819 32.8471C167.276 32.894 166.73 32.8305 166.213 32.6604C165.627 32.3914 165.638 31.9245 165.831 31.4875C163.921 31.6463 162.058 32.1618 160.335 33.0077C160.25 31.861 160.294 30.7083 160.465 29.5714C160.547 29.549 160.628 29.5229 160.71 29.4967C161.215 29.3356 161.703 29.1216 162.164 28.858C161.65 28.7894 161.171 28.5623 160.791 28.2081C161.103 27.2892 161.6 26.4936 162.382 26.1052C163.137 25.7333 163.963 25.5292 164.803 25.5066C165.643 25.4841 166.478 25.6436 167.251 25.9744C167.251 25.9744 165.438 24.641 166.105 24.0957C166.15 24.1405 166.194 24.1816 166.243 24.2227C166.306 24.275 166.376 24.331 166.443 24.3833C166.854 24.7194 167.47 24.2451 167.552 23.7371C167.56 23.6729 167.573 23.6094 167.589 23.5466C167.6 23.4943 167.615 23.442 167.63 23.3935C167.642 23.3504 167.657 23.308 167.674 23.2665C168.909 22.9677 172.643 24.1816 174.078 26.856C174.078 26.856 184.109 31.7116 175.261 42.2634Z" fill="#3F3D56"/>
<path d="M174.642 116.215C174.552 115.591 174.708 114.956 175.076 114.446C175.443 113.936 175.994 113.59 176.611 113.483C176.737 113.463 176.864 113.454 176.991 113.455L183.476 98.2878L187.924 101.652L179.263 116.02C179.217 116.551 178.997 117.052 178.639 117.444C178.281 117.836 177.803 118.098 177.282 118.188C176.984 118.237 176.681 118.226 176.387 118.156C176.094 118.086 175.818 117.959 175.574 117.782C175.329 117.604 175.122 117.38 174.964 117.122C174.806 116.864 174.699 116.577 174.651 116.278C174.648 116.257 174.645 116.236 174.642 116.215Z" fill="#A0616A"/>
<path d="M175.396 54.8005L183.926 55.1741C183.926 55.1741 196.534 76.8379 195.05 78.3319C193.567 79.826 192.052 78.9779 193.922 80.896C195.792 82.8141 197.646 82.0671 196.534 83.5611C195.421 85.0552 193.938 83.374 195.421 85.5219C196.905 87.6698 184.853 107.909 184.853 107.909L179.661 105.294C179.661 105.294 184.713 91.9226 185.061 90.1697C185.409 88.4168 185.455 86.9186 185.061 86.3604C184.667 85.8022 175.396 54.8005 175.396 54.8005Z" fill="#3F3D56"/>
<path d="M177.154 50.9514L165.199 78.7745L160.363 48.927C160.868 48.856 161.19 48.8336 161.19 48.8336L163.248 44.8071L175.037 45.4234L176.95 50.8581C176.95 50.8581 177.021 50.8917 177.154 50.9514Z" fill="#161616"/>
<path d="M172.574 112.873C168.143 112.921 164.001 112.073 160.648 111.823L164.828 90.7271L172.574 112.873Z" fill="#161616"/>
<path d="M121.361 196.531C121.361 196.589 121.372 196.647 121.395 196.701C121.417 196.755 121.449 196.804 121.49 196.845C121.531 196.887 121.58 196.919 121.634 196.942C121.687 196.964 121.745 196.975 121.803 196.975H215.73C215.847 196.975 215.959 196.928 216.042 196.845C216.125 196.762 216.171 196.649 216.171 196.531C216.171 196.413 216.125 196.3 216.042 196.216C215.959 196.133 215.847 196.086 215.73 196.086H121.803C121.745 196.086 121.687 196.097 121.634 196.12C121.58 196.142 121.531 196.175 121.49 196.216C121.449 196.257 121.417 196.306 121.395 196.36C121.372 196.414 121.361 196.472 121.361 196.531Z" fill="#CCCCCC"/>
<path d="M104.741 47.1148H42.6159C40.2467 47.1148 38.3184 44.9188 38.3184 42.2206C38.3184 39.5225 40.2467 37.3264 42.6159 37.3264H104.741C107.11 37.3264 109.039 39.5225 109.039 42.2206C109.039 44.9188 107.11 47.1148 104.741 47.1148ZM42.6159 37.9314C40.5388 37.9314 38.8496 39.8552 38.8496 42.2206C38.8496 44.5861 40.5388 46.5099 42.6159 46.5099H104.741C106.818 46.5099 108.508 44.5861 108.508 42.2206C108.508 39.8552 106.818 37.9314 104.741 37.9314H42.6159Z" fill="#E2E3E4"/>
<path d="M104.741 104.39H42.6159C40.3184 104.39 38.4512 102.264 38.4512 99.6475C38.4512 97.031 40.3184 94.9045 42.6159 94.9045H104.741C107.039 94.9045 108.906 97.031 108.906 99.6475C108.906 102.264 107.039 104.39 104.741 104.39Z" fill="#37E367"/>
<path d="M84.3836 27.8192H41.5944C39.2969 27.8192 37.4297 25.6927 37.4297 23.0762C37.4297 20.4597 39.2969 18.3333 41.5944 18.3333H84.3836C86.6811 18.3333 88.5483 20.4597 88.5483 23.0762C88.5483 25.6927 86.6811 27.8192 84.3836 27.8192Z" fill="#E2E3E4"/>
<path d="M104.741 66.2562H42.6159C40.2467 66.2562 38.3184 64.0602 38.3184 61.362C38.3184 58.6638 40.2467 56.4678 42.6159 56.4678H104.741C107.11 56.4678 109.039 58.6638 109.039 61.362C109.039 64.0602 107.11 66.2562 104.741 66.2562ZM42.6159 57.0727C40.5388 57.0727 38.8496 58.9966 38.8496 61.362C38.8496 63.7274 40.5388 65.6512 42.6159 65.6512H104.741C106.818 65.6512 108.508 63.7274 108.508 61.362C108.508 58.9966 106.818 57.0727 104.741 57.0727H42.6159Z" fill="#E2E3E4"/>
<path d="M104.741 85.4005H42.6159C40.2467 85.4005 38.3184 83.2044 38.3184 80.5063C38.3184 77.8081 40.2467 75.6121 42.6159 75.6121H104.741C107.11 75.6121 109.039 77.8081 109.039 80.5063C109.039 83.2044 107.11 85.4005 104.741 85.4005ZM42.6159 76.217C40.5388 76.217 38.8496 78.1408 38.8496 80.5063C38.8496 82.8717 40.5388 84.7955 42.6159 84.7955H104.741C106.818 84.7955 108.508 82.8717 108.508 80.5063C108.508 78.1408 106.818 76.217 104.741 76.217H42.6159Z" fill="#E2E3E4"/>
<path d="M40.4812 33.8115H56.7629C57.1507 33.8115 57.4667 34.1685 57.4667 34.6131C57.4667 35.0547 57.1507 35.4147 56.7629 35.4147H40.4812C40.0934 35.4147 39.7773 35.0578 39.7773 34.6131C39.7773 34.1715 40.0934 33.8115 40.4812 33.8115Z" fill="#E2E3E4"/>
<path d="M40.4812 53.4065H56.7629C57.1507 53.4065 57.4667 53.7634 57.4667 54.2051C57.4667 54.6467 57.1507 55.0066 56.7629 55.0066H40.4812C40.0934 55.0066 39.7773 54.6497 39.7773 54.2081C39.7773 53.7665 40.0934 53.4065 40.4812 53.4065Z" fill="#E2E3E4"/>
<path d="M40.4812 73.0044H56.7629C57.1507 73.0044 57.4667 73.3613 57.4667 73.806C57.4667 74.2476 57.1507 74.6045 56.7629 74.6045H40.4812C40.0934 74.6045 39.7773 74.2476 39.7773 73.803C39.7773 73.3613 40.0934 73.0044 40.4812 73.0044Z" fill="#E2E3E4"/>
</svg>
