<svg width="250" height="231" viewBox="0 0 250 231" fill="none" xmlns="http://www.w3.org/2000/svg">
<g clip-path="url(#clip0_323_2100)">
<path d="M36.5313 147.416C56.707 147.416 73.0627 132.127 73.0627 113.268C73.0627 94.408 56.707 79.1191 36.5313 79.1191C16.3556 79.1191 0 94.408 0 113.268C0 132.127 16.3556 147.416 36.5313 147.416Z" fill="url(#paint0_radial_323_2100)" fill-opacity="0.7"/>
<path d="M36.8585 114.691C44.9039 114.691 51.426 108.595 51.426 101.074C51.426 93.5532 44.9039 87.4565 36.8585 87.4565C28.8131 87.4565 22.291 93.5532 22.291 101.074C22.291 108.595 28.8131 114.691 36.8585 114.691Z" fill="#2F2E41"/>
<path d="M73.2599 34.9015C73.2471 41.6554 71.092 48.2541 67.0672 53.8631C63.0425 59.4722 57.3288 63.8396 50.6487 66.4131C43.9685 68.9867 36.622 69.6508 29.5382 68.3214C22.4543 66.992 15.9512 63.7289 10.8513 58.9447C5.75137 54.1605 2.28364 48.07 0.886641 41.4436C-0.510361 34.8171 0.226105 27.9521 3.00291 21.7169C5.77971 15.4817 10.4721 10.1562 16.4868 6.41385C22.5014 2.67153 29.5682 0.680462 36.7934 0.692437C41.5942 0.688747 46.3486 1.57196 50.7831 3.29131C55.2177 5.01066 59.245 7.53226 62.6337 10.7112C66.0225 13.8901 68.7057 17.6637 70.5293 21.8151C72.3529 25.9664 73.2808 30.4138 73.2599 34.9015Z" fill="url(#paint1_radial_323_2100)" fill-opacity="0.7"/>
<path d="M123.219 147.416C143.395 147.416 159.75 132.127 159.75 113.268C159.75 94.408 143.395 79.1191 123.219 79.1191C103.043 79.1191 86.6875 94.408 86.6875 113.268C86.6875 132.127 103.043 147.416 123.219 147.416Z" fill="url(#paint2_radial_323_2100)" fill-opacity="0.7"/>
<path d="M123.113 68.9894C143.289 68.9894 159.645 53.7006 159.645 34.8409C159.645 15.9812 143.289 0.692383 123.113 0.692383C102.938 0.692383 86.582 15.9812 86.582 34.8409C86.582 53.7006 102.938 68.9894 123.113 68.9894Z" fill="url(#paint3_radial_323_2100)" fill-opacity="0.7"/>
<path d="M212.149 68.9894C232.324 68.9894 248.68 53.7006 248.68 34.8409C248.68 15.9812 232.324 0.692383 212.149 0.692383C191.973 0.692383 175.617 15.9812 175.617 34.8409C175.617 53.7006 191.973 68.9894 212.149 68.9894Z" fill="url(#paint4_radial_323_2100)" fill-opacity="0.7"/>
<path d="M213.469 147.416C233.645 147.416 250 132.127 250 113.268C250 94.408 233.645 79.1191 213.469 79.1191C193.293 79.1191 176.938 94.408 176.938 113.268C176.938 132.127 193.293 147.416 213.469 147.416Z" fill="url(#paint5_radial_323_2100)" fill-opacity="0.7"/>
<path d="M73.2599 196.544C73.2599 203.298 71.1174 209.9 67.1033 215.516C63.0892 221.131 57.3838 225.508 50.7085 228.093C44.0333 230.678 36.6881 231.354 29.6017 230.036C22.5153 228.719 16.0061 225.466 10.8971 220.691C5.78806 215.915 2.30879 209.83 0.89922 203.206C-0.510349 196.582 0.213097 189.716 2.97807 183.476C5.74304 177.236 10.4253 171.903 16.4329 168.15C22.4404 164.398 29.5034 162.395 36.7286 162.395C41.532 162.375 46.292 163.245 50.7338 164.954C55.1756 166.663 59.2113 169.178 62.6078 172.353C66.0043 175.528 68.6944 179.3 70.5227 183.452C72.351 187.604 73.2813 192.054 73.2599 196.544Z" fill="url(#paint6_radial_323_2100)" fill-opacity="0.7"/>
<path d="M125.461 230.693C145.637 230.693 161.992 215.404 161.992 196.544C161.992 177.684 145.637 162.396 125.461 162.396C105.285 162.396 88.9297 177.684 88.9297 196.544C88.9297 215.404 105.285 230.693 125.461 230.693Z" fill="url(#paint7_radial_323_2100)" fill-opacity="0.7"/>
<path d="M19.7981 23.7326C21.3087 19.2325 24.7437 15.1052 29.4943 13.5839C34.2452 12.0627 41.2017 14.3801 44.7733 17.7074C51.3064 23.7938 52.9008 44.7027 48.4122 51.3101C47.5195 51.2659 44.4388 51.2333 43.5352 51.2016L42.2569 47.2191V51.1624C40.8174 51.1208 39.3665 51.0921 37.9044 51.0762C33.0023 51.0194 28.3147 49.1882 24.827 45.9675C21.3394 42.7469 19.3233 38.3877 19.2027 33.8063C19.0858 29.4236 19.2029 25.506 19.7981 23.7326Z" fill="#2F2E41"/>
<path d="M36.1866 38.6468C41.9365 38.6468 46.5977 34.2896 46.5977 28.9147C46.5977 23.5398 41.9365 19.1826 36.1866 19.1826C30.4366 19.1826 25.7754 23.5398 25.7754 28.9147C25.7754 34.2896 30.4366 38.6468 36.1866 38.6468Z" fill="#9E616A"/>
<path d="M27.2031 20.3677L39.1906 14.7568C41.6414 15.7892 43.752 17.4156 45.3038 19.4674C46.8555 21.5193 47.7917 23.9218 48.0153 26.4259L48.3141 29.7714L43.2943 28.5769L42.7444 24.299L41.892 28.2432L39.5754 27.6923L39.5974 21.0508L37.2794 27.6875L29.0055 25.9106L27.2031 20.3677Z" fill="#2F2E41"/>
<path d="M113.187 100.454C116.035 100.454 118.345 98.2954 118.345 95.6327C118.345 92.97 116.035 90.8115 113.187 90.8115C110.338 90.8115 108.029 92.97 108.029 95.6327C108.029 98.2954 110.338 100.454 113.187 100.454Z" fill="#2F2E41"/>
<path d="M121.439 118.775C128.655 118.775 134.505 113.306 134.505 106.561C134.505 99.8154 128.655 94.3472 121.439 94.3472C114.223 94.3472 108.373 99.8154 108.373 106.561C108.373 113.306 114.223 118.775 121.439 118.775Z" fill="#2F2E41"/>
<path d="M122.522 118.771C128.386 118.771 133.139 114.328 133.139 108.846C133.139 103.365 128.386 98.9214 122.522 98.9214C116.658 98.9214 111.904 103.365 111.904 108.846C111.904 114.328 116.658 118.771 122.522 118.771Z" fill="#9E616A"/>
<path d="M129.731 98.7295C127.871 97.6692 125.739 97.0957 123.561 97.0689C121.382 97.042 119.235 97.5628 117.346 98.5769C115.456 99.5909 113.892 101.061 112.818 102.833C111.744 104.605 111.199 106.615 111.24 108.651C116.651 109.921 122.334 110.893 128.104 108.955L129.466 105.838L130.27 108.957C132.027 109.629 133.788 110.197 135.55 108.951C135.622 106.92 135.122 104.907 134.101 103.114C133.08 101.32 131.573 99.8082 129.731 98.7295Z" fill="#2F2E41"/>
<path d="M108.386 82.5449C104.819 81.0163 100.344 81.7336 97.3747 84.1305C94.4051 86.5275 92.9933 90.4286 93.5666 94.0568C94.1514 97.7581 96.5586 100.945 98.7775 104.059C100.996 107.173 103.164 110.585 103.162 114.327C103.16 117.022 102.015 119.606 99.9778 121.513C97.9407 123.42 95.1778 124.493 92.2949 124.499C95.6784 125.86 99.2099 127.249 102.89 127.087C106.569 126.926 110.426 124.715 111.026 121.317C111.459 118.869 110.174 116.482 109.102 114.212C107.357 110.513 106.095 106.631 105.345 102.65C104.987 100.75 104.754 98.7521 105.417 96.9249C105.944 95.5708 106.924 94.4111 108.21 93.6168C109.496 92.8225 111.022 92.4356 112.561 92.5132L113.777 91.4907C114.318 87.8581 111.952 84.0735 108.386 82.5449Z" fill="#2F2E41"/>
<path d="M197.239 21.4841C196.738 24.0022 195.916 26.4551 194.79 28.7904C188.346 41.5338 206.698 37.3801 213.256 37.3801C220.427 37.3801 227.287 40.9047 226.24 25.2435C225.792 18.5537 220.427 13.1069 213.256 13.1069C207.131 13.1069 198.52 15.6517 197.239 21.4841Z" fill="#2F2E41"/>
<path d="M212.181 37.377C218.008 37.377 222.732 32.9615 222.732 27.5147C222.732 22.0679 218.008 17.6523 212.181 17.6523C206.354 17.6523 201.631 22.0679 201.631 27.5147C201.631 32.9615 206.354 37.377 212.181 37.377Z" fill="#FFB6B6"/>
<path d="M205.017 17.4612C206.866 16.4076 208.984 15.8377 211.149 15.811C213.314 15.7844 215.447 16.3019 217.325 17.3095C219.203 18.3172 220.756 19.7779 221.824 21.539C222.891 23.3001 223.432 25.2969 223.391 27.3205C218.015 28.5822 212.367 29.5478 206.634 27.6223L205.28 24.5248L204.482 27.6246C202.736 28.2917 200.986 28.8561 199.235 27.6182C199.164 25.6002 199.66 23.6001 200.675 21.8177C201.69 20.0353 203.187 18.5331 205.017 17.4612Z" fill="#2F2E41"/>
<path d="M36.8634 116.48C44.0507 116.48 49.8772 111.034 49.8772 104.315C49.8772 97.5968 44.0507 92.1504 36.8634 92.1504C29.6761 92.1504 23.8496 97.5968 23.8496 104.315C23.8496 111.034 29.6761 116.48 36.8634 116.48Z" fill="#FFB8B8"/>
<path d="M124.657 200.086C130.778 200.086 135.74 195.448 135.74 189.726C135.74 184.004 130.778 179.366 124.657 179.366C118.536 179.366 113.574 184.004 113.574 189.726C113.574 195.448 118.536 200.086 124.657 200.086Z" fill="#9E616A"/>
<path d="M124.602 38.3242C131.181 38.3242 136.514 33.3388 136.514 27.1889C136.514 21.0391 131.181 16.0537 124.602 16.0537C118.023 16.0537 112.689 21.0391 112.689 27.1889C112.689 33.3388 118.023 38.3242 124.602 38.3242Z" fill="#FFB8B8"/>
<path d="M135.09 19.8331C135.09 19.8331 138.192 14.2907 131.368 13.7868C131.368 13.7868 125.551 8.85419 119.622 12.8851C119.622 12.8851 116.388 12.8851 114.619 16.3061C114.619 16.3061 112.076 15.4044 111.517 17.8177C111.517 17.8177 109.655 22.8563 111.517 27.391C113.378 31.9257 113.996 32.4296 113.996 32.4296C113.996 32.4296 112.69 26.8023 120.135 26.2984C127.579 25.7945 134.409 21.4351 135.029 26.9776C135.649 32.52 136.331 30.0163 136.331 30.0163C136.331 30.0163 142.224 22.1005 135.09 19.8331Z" fill="#2F2E41"/>
<path d="M212.46 117.498C218.9 117.498 224.121 112.618 224.121 106.597C224.121 100.577 218.9 95.6968 212.46 95.6968C206.02 95.6968 200.799 100.577 200.799 106.597C200.799 112.618 206.02 117.498 212.46 117.498Z" fill="#FFB6B6"/>
<path d="M51.6703 188.373L51.4896 188.677C53.0985 184.971 51.6355 180.404 48.7654 177.609C45.8954 174.814 41.9054 173.536 37.9766 173.03C35.0601 172.653 32.0328 172.664 29.2596 173.663C25.2437 175.109 22.1755 178.457 19.6138 181.939C18.442 183.532 17.2899 185.348 17.4066 187.339C17.515 189.187 18.6882 190.754 19.649 192.322C20.6098 193.889 21.4122 195.834 20.7226 197.545C20.3117 198.565 19.4432 199.299 18.7386 200.133C18.0339 200.967 17.4543 202.094 17.7946 203.141C17.9458 203.541 18.2054 203.898 18.5482 204.176C18.891 204.455 19.3052 204.645 19.7504 204.729C20.6022 204.915 21.486 204.794 22.3488 204.672L44.7427 201.509C46.2644 201.294 47.708 200.738 48.9503 199.889C50.1926 199.04 51.1968 197.923 51.8772 196.632C52.5577 195.342 52.8943 193.917 52.8583 192.479C52.8222 191.041 52.4147 189.632 51.6703 188.373Z" fill="#2F2E41"/>
<path d="M45.8199 192.768C46.7885 187.189 42.7351 181.932 36.7663 181.026C30.7975 180.121 25.1736 183.91 24.205 189.489C23.2364 195.069 27.2899 200.326 33.2587 201.231C39.2275 202.137 44.8513 198.348 45.8199 192.768Z" fill="#FFB9B9"/>
<path d="M64.1605 219.091C57.8316 225.822 48.9246 229.958 39.3623 230.604C29.8 231.25 20.3494 228.355 13.0508 222.544L16.1841 214.371C16.8922 212.919 18.0097 211.675 19.4166 210.772C20.8236 209.869 22.4669 209.341 24.1706 209.244L26.1639 209.13L30.9171 205.298C30.9171 205.298 43.7243 204.87 43.5343 204.666L51.2921 209.027L51.2857 208.997L54.3353 209.172C56.039 209.268 57.6826 209.796 59.0896 210.699C60.4966 211.602 61.614 212.847 62.3217 214.298L64.1605 219.091Z" fill="#161616"/>
<path d="M152.397 219.091C146.068 225.822 137.161 229.958 127.599 230.604C118.036 231.25 108.586 228.355 101.287 222.544L104.42 214.371C105.129 212.919 106.246 211.675 107.653 210.772C109.06 209.869 110.703 209.341 112.407 209.244L114.4 209.13L119.153 205.298C119.153 205.298 131.961 204.87 131.771 204.666L139.528 209.027L139.522 208.997L142.572 209.172C144.275 209.268 145.919 209.796 147.326 210.699C148.733 211.602 149.85 212.847 150.558 214.298L152.397 219.091Z" fill="#161616"/>
<path d="M45.3988 181.63C45.1162 180.232 43.5912 179.593 42.2847 179.283C38.4949 178.379 34.5527 178.177 30.6798 178.687C27.8566 179.064 24.9664 179.894 22.9179 181.953C21.2661 183.688 20.3302 185.916 20.2783 188.238C20.1947 189.626 20.5265 191.009 21.2365 192.23C21.9737 193.397 23.2302 194.243 24.5273 194.213L24.6587 194.64C30.1557 193.924 35.262 190.727 38.478 185.987C37.8744 188.002 36.6733 189.816 35.0134 191.219C38.7246 189.831 41.9507 187.507 44.3321 184.506C44.9824 183.699 45.6138 182.693 45.3988 181.63Z" fill="#2F2E41"/>
<path d="M63.8382 135.706C57.5093 142.438 48.6023 146.573 39.04 147.219C29.4777 147.865 20.0272 144.97 12.7285 139.159L15.8619 130.986C16.57 129.534 17.6874 128.29 19.0944 127.387C20.5013 126.484 22.1447 125.956 23.8483 125.859L25.8417 125.745L30.5949 121.913C30.5949 121.913 43.4021 121.485 43.2121 121.281L50.9698 125.643L50.9634 125.613L54.013 125.787C55.7168 125.883 57.3603 126.411 58.7673 127.314C60.1744 128.217 61.2917 129.462 61.9994 130.914L63.8382 135.706Z" fill="#161616"/>
<path d="M150.705 136.116C144.376 142.847 135.469 146.982 125.907 147.628C116.345 148.274 106.894 145.379 99.5957 139.568L102.729 131.396C103.437 129.944 104.555 128.7 105.962 127.797C107.368 126.894 109.012 126.366 110.715 126.269L112.709 126.155L117.462 122.323C117.462 122.323 130.269 121.895 130.079 121.69L137.837 126.052L137.831 126.022L140.88 126.197C142.584 126.293 144.228 126.821 145.635 127.724C147.042 128.627 148.159 129.871 148.867 131.323L150.705 136.116Z" fill="#161616"/>
<path d="M240.875 136.116C234.546 142.847 225.639 146.982 216.077 147.628C206.515 148.274 197.064 145.379 189.766 139.568L192.899 131.396C193.607 129.944 194.725 128.7 196.131 127.797C197.538 126.894 199.182 126.366 200.885 126.269L202.879 126.155L207.632 122.323C207.632 122.323 220.439 121.895 220.249 121.69L228.007 126.052L228 126.022L231.05 126.197C232.754 126.293 234.397 126.821 235.804 127.724C237.211 128.627 238.329 129.871 239.037 131.323L240.875 136.116Z" fill="#161616"/>
<path d="M63.8382 57.4389C57.5093 64.1705 48.6023 68.3057 39.04 68.9517C29.4777 69.5977 20.0272 66.7027 12.7285 60.8917L15.8619 52.7188C16.57 51.2672 17.6874 50.0231 19.0944 49.12C20.5013 48.2169 22.1447 47.6888 23.8483 47.5923L25.8417 47.4779L30.5949 43.6458C30.5949 43.6458 43.4021 43.2184 43.2121 43.0137L50.9698 47.3756L50.9634 47.3455L54.013 47.52C55.7168 47.6161 57.3603 48.144 58.7673 49.0472C60.1744 49.9504 61.2917 51.1947 61.9994 52.6465L63.8382 57.4389Z" fill="#161616"/>
<path d="M150.385 57.5478C144.056 64.2794 135.149 68.4146 125.587 69.0606C116.025 69.7066 106.574 66.8116 99.2754 61.0006L102.409 52.8277C103.117 51.3761 104.234 50.132 105.641 49.2289C107.048 48.3257 108.692 47.7976 110.395 47.7012L112.389 47.5868L117.142 43.7547C117.142 43.7547 129.949 43.3272 129.759 43.1226L137.517 47.4844L137.51 47.4543L140.56 47.6289C142.264 47.725 143.907 48.2529 145.314 49.1561C146.721 50.0593 147.839 51.3036 148.546 52.7554L150.385 57.5478Z" fill="#161616"/>
<path d="M240.553 57.5478C234.224 64.2794 225.317 68.4146 215.755 69.0606C206.193 69.7066 196.742 66.8116 189.443 61.0006L192.577 52.8277C193.285 51.3761 194.402 50.132 195.809 49.2289C197.216 48.3257 198.86 47.7976 200.563 47.7012L202.557 47.5868L207.31 43.7547C207.31 43.7547 220.117 43.3272 219.927 43.1226L227.685 47.4844L227.678 47.4543L230.728 47.6289C232.432 47.725 234.075 48.2529 235.482 49.1561C236.889 50.0593 238.007 51.3036 238.714 52.7554L240.553 57.5478Z" fill="#161616"/>
<path d="M224.76 99.8369C223.775 96.5399 221.536 93.6925 218.464 91.8292C216.016 90.3654 212.961 89.6181 210.187 90.3922C207.413 91.1663 205.117 93.7107 205.299 96.4598C204.298 96.1413 203.159 96.565 202.427 97.2889C201.694 98.0128 201.3 98.9866 201.017 99.9559C200.127 103.038 200.186 106.293 201.187 109.345L201.132 109.783C202.486 109.574 203.512 108.488 204.15 107.332C204.788 106.176 205.156 104.893 205.847 103.765C206.539 102.637 207.688 101.631 209.058 101.595L208.937 103.554C210.116 102.986 211.295 102.418 212.474 101.85C212.194 102.477 211.914 103.104 211.633 103.731C212.663 103.329 213.692 102.927 214.722 102.525C214.607 103.128 214.492 103.731 214.377 104.334C215.398 102.161 218.556 101.206 220.704 102.421C221.952 103.127 222.77 104.384 223.201 105.704C223.631 107.025 223.716 108.421 223.798 109.802C225.389 106.696 225.731 103.159 224.76 99.8369Z" fill="#2F2E41"/>
<path d="M114.586 194.516C114.564 194.459 114.544 194.402 114.522 194.345C114.48 194.38 114.439 194.417 114.393 194.449L114.586 194.516Z" fill="#2F2E41"/>
<path d="M137.932 186.041C137.875 184.989 137.58 183.961 137.067 183.024C136.555 182.087 135.835 181.262 134.956 180.604C134.31 180.127 133.563 179.724 133.136 179.066C132.892 178.6 132.685 178.118 132.517 177.624C131.666 175.731 129.242 174.725 127.067 175.012C124.892 175.298 123.009 176.666 121.742 178.343C121.117 178.063 120.42 177.956 119.732 178.035C119.045 178.115 118.396 178.376 117.862 178.789C117.329 179.203 116.934 179.75 116.723 180.367C116.512 180.984 116.495 181.644 116.673 182.27C115.547 181.422 113.725 182.1 113.022 183.281C112.319 184.463 112.43 185.909 112.639 187.247C113.018 189.664 113.649 192.042 114.523 194.345C115.619 193.442 115.552 191.798 115.418 190.408C115.279 188.965 115.362 187.202 116.713 186.489C118.018 185.801 119.601 186.557 121.04 186.948C122.178 187.249 123.372 187.316 124.539 187.144C125.707 186.972 126.822 186.566 127.805 185.953C128.555 185.479 129.222 184.885 130.03 184.504C130.838 184.123 131.866 183.991 132.618 184.461C133.305 184.89 133.585 185.691 133.818 186.432C134.372 188.189 134.926 189.945 135.48 191.701C136.294 190.973 136.933 190.092 137.355 189.116C137.778 188.141 137.974 187.092 137.932 186.041Z" fill="#2F2E41"/>
<path d="M50.594 100.049C50.6853 99.1408 50.7271 98.2289 50.7194 97.3166C50.7725 95.5125 50.4189 93.7182 49.6815 92.0502C48.7746 90.2033 47.1575 88.7431 45.1517 87.9595C43.1636 87.2099 40.9417 87.2117 38.955 87.9646C37.1612 86.9052 35.1683 86.0654 33.0694 85.9614C30.9705 85.8574 28.7514 86.5853 27.458 88.1875C27.1691 88.6105 26.8411 89.0089 26.4776 89.3781C25.4379 90.2781 23.8578 90.1483 22.4759 89.9643C23.0957 90.4609 23.7157 90.9574 24.3359 91.454C23.5856 91.6373 22.8352 91.8205 22.0848 92.0037C22.9604 92.5001 23.836 92.9965 24.7115 93.493C22.1696 94.9192 21.0142 98.032 21.3194 100.859C21.6081 103.536 22.9905 105.983 24.6431 108.159C25.3023 106.858 25.1603 105.302 25.1494 103.838C25.1434 103.363 25.1744 102.888 25.2422 102.417C30.8271 103.668 36.6626 104.472 42.5805 102.484L43.7681 99.767C43.9347 99.783 44.1015 99.7981 44.2681 99.8146L44.9561 102.487C46.516 103.083 48.0792 103.603 49.643 103.056C49.7191 103.469 49.7649 103.89 49.8001 104.295C49.9343 103.811 50.0508 103.323 50.1558 102.833C50.3624 102.729 50.5604 102.611 50.7479 102.479C50.7856 101.667 50.7341 100.852 50.594 100.049Z" fill="#2F2E41"/>
<path d="M174.565 189.159H168.525V184.359H186.045V189.159H180.005V212.359H174.565V189.159ZM194.202 196.119H191.202C190.802 196.599 190.469 197.266 190.202 198.119C189.962 198.972 189.842 199.799 189.842 200.599H195.562C195.616 199.799 195.509 198.972 195.242 198.119C194.976 197.239 194.629 196.572 194.202 196.119ZM199.642 208.159V212.359H189.482C187.616 211.106 186.296 209.559 185.522 207.719C184.776 205.852 184.402 203.972 184.402 202.079C184.402 197.706 186.056 194.319 189.362 191.919H195.842C197.629 193.226 198.842 194.612 199.482 196.079C200.122 197.546 200.442 199.026 200.442 200.519C200.442 202.012 200.322 203.292 200.082 204.359H190.122C190.202 204.972 190.429 205.679 190.802 206.479C191.202 207.252 191.629 207.812 192.082 208.159H199.642ZM212.766 203.119H208.486C207.926 203.812 207.646 204.679 207.646 205.719C207.646 206.759 207.94 207.572 208.526 208.159H212.766V203.119ZM204.166 191.919H214.086C215.686 192.879 216.74 193.986 217.246 195.239C217.753 196.466 218.006 198.146 218.006 200.279V206.279C218.006 208.492 218.06 210.519 218.166 212.359H213.606L212.886 210.919C211.846 211.879 210.38 212.359 208.486 212.359H205.966C203.7 210.866 202.566 208.719 202.566 205.919C202.566 203.092 203.726 200.866 206.046 199.239H209.806C210.846 199.239 211.82 199.559 212.726 200.199V198.199C212.726 197.159 212.273 196.466 211.366 196.119H204.166V191.919ZM230.327 191.919H233.167L234.167 193.319C234.727 192.812 235.26 192.452 235.767 192.239C236.3 192.026 237.087 191.919 238.127 191.919H242.567C243.74 193.412 244.54 194.906 244.967 196.399C245.393 197.892 245.607 199.759 245.607 201.999V212.359H240.287V201.599C240.287 199.146 239.913 197.319 239.167 196.119H235.327C235.913 197.266 236.207 198.826 236.207 200.799V212.359H230.887V201.599C230.887 199.066 230.54 197.239 229.847 196.119H226.767V212.359H221.447V191.919H225.607L226.327 193.359C226.913 192.826 227.46 192.452 227.967 192.239C228.5 192.026 229.287 191.919 230.327 191.919Z" fill="url(#paint8_linear_323_2100)"/>
</g>
<defs>
<radialGradient id="paint0_radial_323_2100" cx="0" cy="0" r="1" gradientUnits="userSpaceOnUse" gradientTransform="translate(36.5313 113.268) rotate(90) scale(34.1485 36.5313)">
<stop stop-color="white"/>
<stop offset="1" stop-color="#343434" stop-opacity="0"/>
</radialGradient>
<radialGradient id="paint1_radial_323_2100" cx="0" cy="0" r="1" gradientUnits="userSpaceOnUse" gradientTransform="translate(36.7287 34.8409) rotate(90) scale(34.1485 36.5315)">
<stop stop-color="white"/>
<stop offset="1" stop-color="#343434" stop-opacity="0"/>
</radialGradient>
<radialGradient id="paint2_radial_323_2100" cx="0" cy="0" r="1" gradientUnits="userSpaceOnUse" gradientTransform="translate(123.219 113.268) rotate(90) scale(34.1485 36.5313)">
<stop stop-color="white"/>
<stop offset="1" stop-color="#343434" stop-opacity="0"/>
</radialGradient>
<radialGradient id="paint3_radial_323_2100" cx="0" cy="0" r="1" gradientUnits="userSpaceOnUse" gradientTransform="translate(123.113 34.8409) rotate(90) scale(34.1485 36.5313)">
<stop stop-color="white"/>
<stop offset="1" stop-color="#343434" stop-opacity="0"/>
</radialGradient>
<radialGradient id="paint4_radial_323_2100" cx="0" cy="0" r="1" gradientUnits="userSpaceOnUse" gradientTransform="translate(212.149 34.8409) rotate(90) scale(34.1485 36.5313)">
<stop stop-color="white"/>
<stop offset="1" stop-color="#343434" stop-opacity="0"/>
</radialGradient>
<radialGradient id="paint5_radial_323_2100" cx="0" cy="0" r="1" gradientUnits="userSpaceOnUse" gradientTransform="translate(213.469 113.268) rotate(90) scale(34.1485 36.5313)">
<stop stop-color="white"/>
<stop offset="1" stop-color="#343434" stop-opacity="0"/>
</radialGradient>
<radialGradient id="paint6_radial_323_2100" cx="0" cy="0" r="1" gradientUnits="userSpaceOnUse" gradientTransform="translate(36.7288 196.544) rotate(90) scale(34.1487 36.5315)">
<stop stop-color="white"/>
<stop offset="1" stop-color="#343434" stop-opacity="0"/>
</radialGradient>
<radialGradient id="paint7_radial_323_2100" cx="0" cy="0" r="1" gradientUnits="userSpaceOnUse" gradientTransform="translate(125.461 196.544) rotate(90) scale(34.1485 36.5313)">
<stop stop-color="white"/>
<stop offset="1" stop-color="#343434" stop-opacity="0"/>
</radialGradient>
<linearGradient id="paint8_linear_323_2100" x1="208.438" y1="169.359" x2="208.438" y2="223.026" gradientUnits="userSpaceOnUse">
<stop stop-color="#31D355"/>
<stop offset="1" stop-color="#31D355" stop-opacity="0"/>
</linearGradient>
<clipPath id="clip0_323_2100">
<rect width="250" height="230" fill="white" transform="translate(0 0.692383)"/>
</clipPath>
</defs>
</svg>
