<svg width="250" height="251" viewBox="0 0 250 251" fill="none" xmlns="http://www.w3.org/2000/svg">
<path d="M32.7871 40.2431C32.7871 18.1518 50.6957 0.243164 72.7871 0.243164H143.06C165.152 0.243164 183.06 18.1518 183.06 40.2432V104.226C183.06 126.317 165.152 144.226 143.06 144.226H72.7871C50.6957 144.226 32.7871 126.317 32.7871 104.226V40.2431Z" fill="#37E367" fill-opacity="0.5"/>
<path d="M99.7266 112.593C99.7266 90.5014 117.635 72.5928 139.727 72.5928H210C232.091 72.5928 250 90.5014 250 112.593V176.576C250 198.667 232.091 216.576 210 216.576H139.727C117.635 216.576 99.7266 198.667 99.7266 176.576V112.593Z" fill="#161616" fill-opacity="0.5"/>
<rect y="106.26" width="150.273" height="143.983" rx="40" fill="#008B83" fill-opacity="0.5"/>
<path d="M58.4131 40.5943C58.4131 40.971 58.1178 41.2764 57.7536 41.2764C57.3893 41.2764 57.094 40.971 57.094 40.5943C57.094 40.2176 57.3893 39.9122 57.7536 39.9122C58.1178 39.9122 58.4131 40.2176 58.4131 40.5943Z" fill="white" fill-opacity="0.5"/>
<path d="M53.7964 43.3226C54.1606 43.3226 54.4559 43.0172 54.4559 42.6405C54.4559 42.2638 54.1606 41.9584 53.7964 41.9584C53.4321 41.9584 53.1369 42.2638 53.1369 42.6405C53.1369 43.0172 53.4321 43.3226 53.7964 43.3226Z" fill="white" fill-opacity="0.5"/>
<path d="M54.4559 44.6867C54.4559 45.0634 54.1606 45.3687 53.7964 45.3687C53.4321 45.3687 53.1369 45.0634 53.1369 44.6867C53.1369 44.31 53.4321 44.0046 53.7964 44.0046C54.1606 44.0046 54.4559 44.31 54.4559 44.6867Z" fill="white" fill-opacity="0.5"/>
<path d="M55.775 43.3226C56.1392 43.3226 56.4345 43.0172 56.4345 42.6405C56.4345 42.2638 56.1392 41.9584 55.775 41.9584C55.4107 41.9584 55.1155 42.2638 55.1155 42.6405C55.1155 43.0172 55.4107 43.3226 55.775 43.3226Z" fill="white" fill-opacity="0.5"/>
<path d="M56.4345 44.6867C56.4345 45.0634 56.1392 45.3687 55.775 45.3687C55.4107 45.3687 55.1155 45.0634 55.1155 44.6867C55.1155 44.31 55.4107 44.0046 55.775 44.0046C56.1392 44.0046 56.4345 44.31 56.4345 44.6867Z" fill="white" fill-opacity="0.5"/>
<path d="M57.7536 43.3226C58.1178 43.3226 58.4131 43.0172 58.4131 42.6405C58.4131 42.2638 58.1178 41.9584 57.7536 41.9584C57.3893 41.9584 57.094 42.2638 57.094 42.6405C57.094 43.0172 57.3893 43.3226 57.7536 43.3226Z" fill="white" fill-opacity="0.5"/>
<path d="M58.4131 44.6867C58.4131 45.0634 58.1178 45.3687 57.7536 45.3687C57.3893 45.3687 57.094 45.0634 57.094 44.6867C57.094 44.31 57.3893 44.0046 57.7536 44.0046C58.1178 44.0046 58.4131 44.31 58.4131 44.6867Z" fill="white" fill-opacity="0.5"/>
<path d="M59.7322 43.3226C60.0964 43.3226 60.3917 43.0172 60.3917 42.6405C60.3917 42.2638 60.0964 41.9584 59.7322 41.9584C59.3679 41.9584 59.0726 42.2638 59.0726 42.6405C59.0726 43.0172 59.3679 43.3226 59.7322 43.3226Z" fill="white" fill-opacity="0.5"/>
<path d="M60.3917 44.6867C60.3917 45.0634 60.0964 45.3687 59.7322 45.3687C59.3679 45.3687 59.0726 45.0634 59.0726 44.6867C59.0726 44.31 59.3679 44.0046 59.7322 44.0046C60.0964 44.0046 60.3917 44.31 60.3917 44.6867Z" fill="white" fill-opacity="0.5"/>
<path d="M61.7107 43.3226C62.075 43.3226 62.3703 43.0172 62.3703 42.6405C62.3703 42.2638 62.075 41.9584 61.7107 41.9584C61.3465 41.9584 61.0512 42.2638 61.0512 42.6405C61.0512 43.0172 61.3465 43.3226 61.7107 43.3226Z" fill="white" fill-opacity="0.5"/>
<path d="M60.3917 40.5943C60.3917 40.971 60.0964 41.2764 59.7322 41.2764C59.3679 41.2764 59.0726 40.971 59.0726 40.5943C59.0726 40.2176 59.3679 39.9122 59.7322 39.9122C60.0964 39.9122 60.3917 40.2176 60.3917 40.5943Z" fill="white" fill-opacity="0.5"/>
<path d="M61.7107 41.2764C62.075 41.2764 62.3703 40.971 62.3703 40.5943C62.3703 40.2176 62.075 39.9122 61.7107 39.9122C61.3465 39.9122 61.0512 40.2176 61.0512 40.5943C61.0512 40.971 61.3465 41.2764 61.7107 41.2764Z" fill="white" fill-opacity="0.5"/>
<path fill-rule="evenodd" clip-rule="evenodd" d="M53.1369 31.0454C53.5011 31.0454 53.7964 31.3508 53.7964 31.7275V33.0916H61.7107V31.7275C61.7107 31.3508 62.006 31.0454 62.3703 31.0454C62.7345 31.0454 63.0298 31.3508 63.0298 31.7275V33.0916H63.6893C65.1463 33.0916 66.3275 34.3131 66.3275 35.8199V46.0508C66.3275 47.5576 65.1463 48.7791 63.6893 48.7791H51.8178C50.3608 48.7791 49.1797 47.5576 49.1797 46.0508V35.8199C49.1797 34.3131 50.3608 33.0916 51.8178 33.0916H52.4773V31.7275C52.4773 31.3508 52.7726 31.0454 53.1369 31.0454ZM65.0084 39.2302C65.0084 38.4768 64.4178 37.866 63.6893 37.866H51.8178C51.0893 37.866 50.4987 38.4768 50.4987 39.2302V46.0508C50.4987 46.8042 51.0893 47.4149 51.8178 47.4149H63.6893C64.4178 47.4149 65.0084 46.8042 65.0084 46.0508V39.2302Z" fill="white" fill-opacity="0.5"/>
<path d="M149.261 95.0357C149.261 95.4124 148.965 95.7178 148.601 95.7178C148.237 95.7178 147.942 95.4124 147.942 95.0357C147.942 94.659 148.237 94.3536 148.601 94.3536C148.965 94.3536 149.261 94.659 149.261 95.0357Z" fill="white" fill-opacity="0.5"/>
<path d="M144.644 97.764C145.008 97.764 145.304 97.4586 145.304 97.0819C145.304 96.7052 145.008 96.3998 144.644 96.3998C144.28 96.3998 143.985 96.7052 143.985 97.0819C143.985 97.4586 144.28 97.764 144.644 97.764Z" fill="white" fill-opacity="0.5"/>
<path d="M145.304 99.1281C145.304 99.5048 145.008 99.8101 144.644 99.8101C144.28 99.8101 143.985 99.5048 143.985 99.1281C143.985 98.7514 144.28 98.446 144.644 98.446C145.008 98.446 145.304 98.7514 145.304 99.1281Z" fill="white" fill-opacity="0.5"/>
<path d="M146.623 97.764C146.987 97.764 147.282 97.4586 147.282 97.0819C147.282 96.7052 146.987 96.3998 146.623 96.3998C146.258 96.3998 145.963 96.7052 145.963 97.0819C145.963 97.4586 146.258 97.764 146.623 97.764Z" fill="white" fill-opacity="0.5"/>
<path d="M147.282 99.1281C147.282 99.5048 146.987 99.8101 146.623 99.8101C146.258 99.8101 145.963 99.5048 145.963 99.1281C145.963 98.7514 146.258 98.446 146.623 98.446C146.987 98.446 147.282 98.7514 147.282 99.1281Z" fill="white" fill-opacity="0.5"/>
<path d="M148.601 97.764C148.965 97.764 149.261 97.4586 149.261 97.0819C149.261 96.7052 148.965 96.3998 148.601 96.3998C148.237 96.3998 147.942 96.7052 147.942 97.0819C147.942 97.4586 148.237 97.764 148.601 97.764Z" fill="white" fill-opacity="0.5"/>
<path d="M149.261 99.1281C149.261 99.5048 148.965 99.8101 148.601 99.8101C148.237 99.8101 147.942 99.5048 147.942 99.1281C147.942 98.7514 148.237 98.446 148.601 98.446C148.965 98.446 149.261 98.7514 149.261 99.1281Z" fill="white" fill-opacity="0.5"/>
<path d="M150.58 97.764C150.944 97.764 151.239 97.4586 151.239 97.0819C151.239 96.7052 150.944 96.3998 150.58 96.3998C150.216 96.3998 149.92 96.7052 149.92 97.0819C149.92 97.4586 150.216 97.764 150.58 97.764Z" fill="white" fill-opacity="0.5"/>
<path d="M151.239 99.1281C151.239 99.5048 150.944 99.8101 150.58 99.8101C150.216 99.8101 149.92 99.5048 149.92 99.1281C149.92 98.7514 150.216 98.446 150.58 98.446C150.944 98.446 151.239 98.7514 151.239 99.1281Z" fill="white" fill-opacity="0.5"/>
<path d="M152.558 97.764C152.923 97.764 153.218 97.4586 153.218 97.0819C153.218 96.7052 152.923 96.3998 152.558 96.3998C152.194 96.3998 151.899 96.7052 151.899 97.0819C151.899 97.4586 152.194 97.764 152.558 97.764Z" fill="white" fill-opacity="0.5"/>
<path d="M151.239 95.0357C151.239 95.4124 150.944 95.7178 150.58 95.7178C150.216 95.7178 149.92 95.4124 149.92 95.0357C149.92 94.659 150.216 94.3536 150.58 94.3536C150.944 94.3536 151.239 94.659 151.239 95.0357Z" fill="white" fill-opacity="0.5"/>
<path d="M152.558 95.7178C152.923 95.7178 153.218 95.4124 153.218 95.0357C153.218 94.659 152.923 94.3536 152.558 94.3536C152.194 94.3536 151.899 94.659 151.899 95.0357C151.899 95.4124 152.194 95.7178 152.558 95.7178Z" fill="white" fill-opacity="0.5"/>
<path fill-rule="evenodd" clip-rule="evenodd" d="M143.985 85.4868C144.349 85.4868 144.644 85.7922 144.644 86.1689V87.533H152.558V86.1689C152.558 85.7922 152.854 85.4868 153.218 85.4868C153.582 85.4868 153.877 85.7922 153.877 86.1689V87.533H154.537C155.994 87.533 157.175 88.7545 157.175 90.2613V100.492C157.175 101.999 155.994 103.22 154.537 103.22H142.665C141.208 103.22 140.027 101.999 140.027 100.492V90.2613C140.027 88.7545 141.208 87.533 142.665 87.533H143.325V86.1689C143.325 85.7922 143.62 85.4868 143.985 85.4868ZM155.856 93.6716C155.856 92.9182 155.265 92.3075 154.537 92.3075H142.665C141.937 92.3075 141.346 92.9182 141.346 93.6716V100.492C141.346 101.246 141.937 101.856 142.665 101.856H154.537C155.265 101.856 155.856 101.246 155.856 100.492V93.6716Z" fill="white" fill-opacity="0.5"/>
<path d="M76.2611 17.371L76.2566 17.3685L76.2411 17.3597C76.228 17.3522 76.2091 17.3413 76.185 17.3272C76.1367 17.299 76.0673 17.2576 75.9797 17.2036C75.8045 17.0955 75.5563 16.9364 75.2594 16.7294C74.6667 16.3162 73.8746 15.7087 73.0805 14.9324C71.5089 13.396 69.8438 11.1134 69.8438 8.30176C69.8438 6.2043 71.5265 4.54102 73.5579 4.54102C74.7525 4.54102 75.8221 5.11343 76.5036 6.01064C77.1851 5.11343 78.2547 4.54102 79.4493 4.54102C81.4806 4.54102 83.1634 6.2043 83.1634 8.30176C83.1634 11.1134 81.4982 13.396 79.9267 14.9324C79.1325 15.7087 78.3405 16.3162 77.7477 16.7294C77.4509 16.9364 77.2027 17.0955 77.0275 17.2036C76.9399 17.2576 76.8704 17.299 76.8222 17.3272C76.798 17.3413 76.7792 17.3522 76.766 17.3597L76.7506 17.3685L76.7461 17.371L76.7442 17.372C76.594 17.4557 76.4132 17.4557 76.263 17.372L76.2611 17.371Z" fill="#0F172A"/>
<path fill-rule="evenodd" clip-rule="evenodd" d="M87.1028 170.014C84.9667 170.014 82.8666 170.176 80.8136 170.488C79.0739 170.753 77.8691 172.328 77.8691 174.098V179.572C77.8691 181.341 79.0739 182.917 80.8136 183.182C81.5844 183.299 82.3619 183.395 83.1454 183.469V187.066C83.1454 187.342 83.3061 187.59 83.5525 187.696C83.799 187.801 84.0826 187.743 84.2713 187.548L87.9501 183.744C88.0099 183.682 88.0933 183.644 88.1843 183.642C89.9483 183.596 91.6861 183.441 93.3915 183.182C95.1312 182.917 96.336 181.341 96.336 179.572V174.098C96.336 172.328 95.1312 170.752 93.3915 170.488C91.3386 170.176 89.2387 170.014 87.1028 170.014ZM83.8049 175.812C83.2585 175.812 82.8156 176.27 82.8156 176.835C82.8156 177.4 83.2585 177.858 83.8049 177.858C84.3513 177.858 84.7942 177.4 84.7942 176.835C84.7942 176.27 84.3513 175.812 83.8049 175.812ZM86.1133 176.835C86.1133 176.27 86.5562 175.812 87.1026 175.812C87.6489 175.812 88.0918 176.27 88.0918 176.835C88.0918 177.4 87.6489 177.858 87.1026 177.858C86.5562 177.858 86.1133 177.4 86.1133 176.835ZM90.4002 175.812C89.8538 175.812 89.4109 176.27 89.4109 176.835C89.4109 177.4 89.8538 177.858 90.4002 177.858C90.9466 177.858 91.3895 177.4 91.3895 176.835C91.3895 176.27 90.9466 175.812 90.4002 175.812Z" fill="white" fill-opacity="0.5"/>
<path fill-rule="evenodd" clip-rule="evenodd" d="M52.6823 70.5541C51.8993 71.5396 50.5309 71.8213 49.4355 71.1581C48.2103 70.4163 47.7906 68.7734 48.4979 67.4886C49.2052 66.2038 50.7718 65.7636 51.9969 66.5054C53.0477 67.1416 53.506 68.4406 53.169 69.6081L53.9452 70.078C54.0727 70.1552 54.1623 70.2862 54.1913 70.4375C54.2203 70.5888 54.1858 70.7459 54.0966 70.8688L54.0928 70.874C53.9253 71.1047 53.6133 71.1547 53.388 70.9867C53.3633 70.9682 53.3375 70.9508 53.3108 70.9347L52.6823 70.5541ZM49.3852 68.0258C49.8096 67.255 50.7496 66.9908 51.4846 67.4359C52.1778 67.8556 52.4412 68.7559 52.1133 69.5036C52.099 69.5229 52.0857 69.5435 52.0737 69.5653C52.0555 69.5985 52.0409 69.6329 52.03 69.668C51.5979 70.4154 50.6731 70.6667 49.9478 70.2275C49.2127 69.7825 48.9608 68.7967 49.3852 68.0258Z" fill="#0F172A"/>
<path fill-rule="evenodd" clip-rule="evenodd" d="M56.248 69.9216C55.5827 70.135 55.0128 70.5454 54.5902 71.0806C54.2708 71.4853 54.0353 71.9617 53.9061 72.4792C53.8369 72.7563 53.7982 73.0449 53.7935 73.3401C53.7878 73.696 53.6044 74.0228 53.3104 74.2008L52.6554 74.5974C51.8681 73.639 50.5184 73.3712 49.4355 74.0268C48.2103 74.7686 47.7906 76.4115 48.4979 77.6963C49.2052 78.9811 50.7718 79.4213 51.9969 78.6796C53.0603 78.0357 53.517 76.7129 53.1564 75.5347L62.5337 69.8571C62.7131 69.7484 62.8125 69.5371 62.7854 69.3217C62.7584 69.1062 62.6103 68.9291 62.4101 68.8728L61.862 68.7188C61.2128 68.5364 60.5278 68.549 59.8851 68.7551L56.248 69.9216ZM49.9478 74.9574C49.2127 75.4025 48.9608 76.3882 49.3852 77.1591C49.8096 77.93 50.7496 78.1941 51.4846 77.749C52.2197 77.3039 52.4716 76.3182 52.0472 75.5473C51.6228 74.7764 50.6828 74.5123 49.9478 74.9574ZM55.3269 73.1296C55.6099 73.1296 55.8392 72.8891 55.8392 72.5923C55.8392 72.2956 55.6099 72.0551 55.3269 72.0551C55.044 72.0551 54.8146 72.2956 54.8146 72.5923C54.8146 72.8891 55.044 73.1296 55.3269 73.1296Z" fill="#0F172A"/>
<path d="M58.3131 73.0329C58.4716 72.9369 58.6669 72.9369 58.8254 73.0329L62.5341 75.2784C62.7135 75.387 62.8129 75.5983 62.7858 75.8138C62.7588 76.0292 62.6107 76.2064 62.4105 76.2626L61.8624 76.4166C61.2132 76.599 60.5282 76.5865 59.8855 76.3803L56.37 75.2528C56.175 75.1903 56.0339 75.0123 56.0108 74.7998C55.9877 74.5873 56.0871 74.3807 56.2637 74.2738L58.3131 73.0329Z" fill="#0F172A"/>
<path d="M83.9182 50.4451C85.2123 50.2841 86.4602 49.965 87.6438 49.5068C86.6624 48.3644 86.0651 46.8519 86.0651 45.1932V44.6911C86.0652 44.6794 86.0652 44.6677 86.0652 44.6559C86.0652 42.2822 84.2303 40.3579 81.9668 40.3579C79.7034 40.3579 77.8685 42.2822 77.8685 44.6559L77.8683 45.1932C77.8683 46.8519 77.271 48.3644 76.2896 49.5068C77.4733 49.9651 78.7212 50.2842 80.0154 50.4451M83.9182 50.4451C83.2783 50.5247 82.6271 50.5656 81.9667 50.5656C81.3064 50.5656 80.6553 50.5247 80.0154 50.4451M83.9182 50.4451C83.9817 50.6524 84.016 50.8735 84.016 51.1029C84.016 52.2898 83.0986 53.2519 81.9668 53.2519C80.8351 53.2519 79.9177 52.2898 79.9177 51.1029C79.9177 50.8735 79.9519 50.6524 80.0154 50.4451M75.9043 43.5814C76.1005 42.3548 76.627 41.2456 77.3847 40.3579M86.549 40.3579C87.3066 41.2456 87.8332 42.3548 88.0294 43.5814" stroke="#0F172A" stroke-width="1.5" stroke-linecap="round" stroke-linejoin="round"/>
<path d="M128.993 47.872C128.993 52.3238 125.698 55.9369 121.639 55.9369C117.58 55.9369 114.285 52.3238 114.285 47.872C114.285 43.4202 117.58 39.8071 121.639 39.8071C125.698 39.8071 128.993 43.4202 128.993 47.872Z" stroke="#292D32" stroke-width="1.5" stroke-linecap="round" stroke-linejoin="round"/>
<path d="M124.368 50.4367L122.088 48.9447C121.691 48.6866 121.367 48.0657 121.367 47.5576V44.251" stroke="#292D32" stroke-width="1.5" stroke-linecap="round" stroke-linejoin="round"/>
<path fill-rule="evenodd" clip-rule="evenodd" d="M78.4492 81.7409C80.044 81.495 81.6752 81.3677 83.3344 81.3677C84.9935 81.3677 86.6246 81.495 88.2192 81.7408C89.5705 81.9492 90.5064 83.1903 90.5064 84.5844V88.8959C90.5064 90.29 89.5705 91.5312 88.2192 91.7395C87.4363 91.8602 86.6446 91.9524 85.8451 92.0149C85.7601 92.0215 85.6861 92.0679 85.6423 92.1367L83.7605 95.0969C83.6655 95.2464 83.5055 95.3362 83.3342 95.3362C83.163 95.3362 83.003 95.2464 82.908 95.0969L81.0261 92.1366C80.9824 92.0678 80.9084 92.0215 80.8234 92.0148C80.0238 91.9523 79.2321 91.8602 78.4492 91.7394C77.0979 91.5311 76.1621 90.2899 76.1621 88.8959V84.5845C76.1621 83.1904 77.0979 81.9493 78.4492 81.7409Z" fill="#0F172A"/>
<path d="M55.1572 104.828V106.439M62.3293 104.828V106.439M52.5957 116.11V108.051C52.5957 107.161 53.2838 106.439 54.1326 106.439H63.3539C64.2027 106.439 64.8908 107.161 64.8908 108.051V116.11M52.5957 116.11C52.5957 117 53.2838 117.722 54.1326 117.722H63.3539C64.2027 117.722 64.8908 117 64.8908 116.11M52.5957 116.11V110.737C52.5957 109.847 53.2838 109.126 54.1326 109.126H63.3539C64.2027 109.126 64.8908 109.847 64.8908 110.737V116.11" stroke="white" stroke-opacity="0.5" stroke-width="1.5" stroke-linecap="round" stroke-linejoin="round"/>
<path d="M98.8715 126.207C100.766 125.982 102.593 125.537 104.326 124.897C102.889 123.303 102.014 121.191 102.014 118.875V118.175C102.015 118.158 102.015 118.142 102.015 118.125C102.015 114.812 99.3284 112.125 96.0146 112.125C92.7009 112.125 90.0146 114.812 90.0146 118.125L90.0145 118.875C90.0145 121.191 89.1399 123.303 87.7031 124.897C89.4361 125.537 91.2631 125.983 93.1578 126.207M98.8715 126.207C97.9346 126.318 96.9812 126.375 96.0145 126.375C95.0478 126.375 94.0945 126.318 93.1578 126.207M98.8715 126.207C98.9645 126.497 99.0146 126.805 99.0146 127.125C99.0146 128.782 97.6715 130.125 96.0146 130.125C94.3578 130.125 93.0146 128.782 93.0146 127.125C93.0146 126.805 93.0648 126.497 93.1578 126.207" stroke="#0F172A" stroke-width="1.5" stroke-linecap="round" stroke-linejoin="round"/>
<path fill-rule="evenodd" clip-rule="evenodd" d="M137.265 118.125C137.265 114.397 140.287 111.375 144.015 111.375C147.743 111.375 150.765 114.398 150.765 118.125L150.764 118.175V118.875C150.764 120.999 151.565 122.933 152.883 124.395C153.05 124.58 153.114 124.836 153.054 125.077C152.994 125.319 152.819 125.515 152.586 125.601C151.042 126.171 149.425 126.591 147.754 126.845C147.761 126.937 147.765 127.031 147.765 127.125C147.765 129.197 146.086 130.875 144.015 130.875C141.944 130.875 140.265 129.197 140.265 127.125C140.265 127.031 140.268 126.937 140.275 126.845C138.604 126.591 136.988 126.171 135.443 125.601C135.21 125.515 135.035 125.319 134.975 125.077C134.915 124.836 134.979 124.58 135.146 124.395C136.463 122.933 137.264 120.999 137.264 118.875L137.265 118.125ZM141.767 127.025C141.765 127.058 141.765 127.092 141.765 127.125C141.765 128.368 142.772 129.375 144.015 129.375C145.257 129.375 146.265 128.368 146.265 127.125C146.265 127.092 146.264 127.058 146.262 127.025C145.522 127.091 144.772 127.125 144.014 127.125C143.257 127.125 142.507 127.091 141.767 127.025Z" fill="#0F172A"/>
<path fill-rule="evenodd" clip-rule="evenodd" d="M172.131 74.7417C169.867 74.7417 168.032 76.666 168.032 79.0397C168.032 80.3911 167.722 81.6651 167.174 82.7892C167.101 82.9384 167.098 83.1148 167.167 83.266C167.236 83.4173 167.369 83.526 167.525 83.5601C168.255 83.7189 168.997 83.8407 169.75 83.9237C169.86 85.2016 170.884 86.203 172.131 86.203C173.378 86.203 174.402 85.2016 174.512 83.9237C175.265 83.8407 176.007 83.7189 176.736 83.5601C176.893 83.526 177.025 83.4173 177.094 83.266C177.163 83.1148 177.161 82.9384 177.088 82.7892C176.539 81.6651 176.229 80.3911 176.229 79.0397C176.229 76.666 174.394 74.7417 172.131 74.7417ZM170.798 84.0134C171.239 84.0404 171.683 84.054 172.131 84.054C172.578 84.054 173.022 84.0404 173.463 84.0134C173.325 84.6518 172.781 85.1285 172.131 85.1285C171.48 85.1285 170.936 84.6518 170.798 84.0134Z" fill="#0F172A"/>
<path fill-rule="evenodd" clip-rule="evenodd" d="M214.379 80.3083C215.974 80.0624 217.605 79.9351 219.264 79.9351C220.923 79.9351 222.554 80.0623 224.149 80.3082C225.5 80.5166 226.436 81.7577 226.436 83.1518V87.4633C226.436 88.8574 225.5 90.0986 224.149 90.3069C223.366 90.4276 222.574 90.5197 221.775 90.5823C221.69 90.5889 221.616 90.6353 221.572 90.7041L219.69 93.6643C219.595 93.8138 219.435 93.9035 219.264 93.9035C219.093 93.9035 218.933 93.8138 218.838 93.6643L216.956 90.704C216.912 90.6352 216.838 90.5889 216.753 90.5822C215.954 90.5197 215.162 90.4275 214.379 90.3068C213.028 90.0985 212.092 88.8573 212.092 87.4632V83.1519C212.092 81.7578 213.028 80.5166 214.379 80.3083Z" fill="#0F172A" fill-opacity="0.5"/>
<path d="M96.4824 232.879C96.4824 234.026 97.2498 235.024 98.3318 235.191C98.9789 235.29 99.6322 235.37 100.291 235.43C100.767 235.473 101.201 235.728 101.457 236.131L103.142 238.782L104.827 236.131C105.084 235.728 105.517 235.473 105.994 235.43C106.652 235.37 107.306 235.291 107.953 235.191C109.035 235.024 109.802 234.026 109.802 232.879V228.567C109.802 227.42 109.035 226.422 107.953 226.255C106.383 226.013 104.777 225.888 103.142 225.888C101.508 225.888 99.9019 226.013 98.3318 226.255C97.2498 226.422 96.4824 227.42 96.4824 228.567V232.879Z" stroke="#0F172A" stroke-width="1.5" stroke-linecap="round" stroke-linejoin="round"/>
<g clip-path="url(#clip0_317_2086)">
<path fill-rule="evenodd" clip-rule="evenodd" d="M21.4683 220.532C22.9298 220.285 24.4289 220.157 25.9561 220.157C27.4834 220.157 28.9825 220.285 30.444 220.532C31.4251 220.698 32.1037 221.599 32.1037 222.611V226.299C32.1037 227.311 31.4251 228.212 30.444 228.378C29.6463 228.513 28.8373 228.612 28.0187 228.675C27.8276 228.689 27.663 228.804 27.5801 228.971L26.4107 231.329C26.3225 231.507 26.1473 231.619 25.9561 231.619C25.765 231.619 25.5898 231.507 25.5016 231.329L24.3321 228.971C24.2493 228.804 24.0846 228.689 23.8936 228.675C23.0749 228.612 22.266 228.513 21.4683 228.378C20.4871 228.212 19.8086 227.311 19.8086 226.299V222.611C19.8086 221.599 20.4871 220.698 21.4683 220.532Z" fill="#0F172A"/>
</g>
<path d="M113.046 76.1742V70.8017C113.046 70.5049 113.275 70.2644 113.558 70.2644H115.607C115.89 70.2644 116.12 70.5049 116.12 70.8017V76.1742M113.046 76.1742H105.437M113.046 76.1742H116.12M116.12 76.1742H118.605M117.656 76.1742V67.828M106.386 76.1742V67.8282M106.386 67.8282C107.17 68.3032 108.189 68.1892 108.859 67.4861C108.89 67.4541 108.919 67.4214 108.947 67.388C109.323 67.8341 109.872 68.1154 110.484 68.1154C111.096 68.1154 111.646 67.834 112.021 67.3879C112.397 67.834 112.946 68.1154 113.558 68.1154C114.17 68.1154 114.719 67.8341 115.095 67.388C115.123 67.4214 115.152 67.4541 115.183 67.486C115.853 68.1892 116.873 68.3032 117.656 67.828M106.386 67.8282C106.234 67.7362 106.091 67.6222 105.962 67.4861C105.161 66.6468 105.161 65.2861 105.962 64.4469L106.774 63.595C106.966 63.3935 107.227 63.2803 107.498 63.2803H116.544C116.816 63.2803 117.076 63.3935 117.268 63.595L118.081 64.4468C118.881 65.2861 118.881 66.6468 118.081 67.486C117.951 67.6221 117.808 67.7361 117.656 67.828M108.435 74.0252H110.997C111.28 74.0252 111.509 73.7846 111.509 73.4879V70.8017C111.509 70.5049 111.28 70.2644 110.997 70.2644H108.435C108.152 70.2644 107.923 70.5049 107.923 70.8017V73.4879C107.923 73.7846 108.152 74.0252 108.435 74.0252Z" stroke="#0F172A" stroke-width="1.5" stroke-linecap="round" stroke-linejoin="round"/>
<g clip-path="url(#clip1_317_2086)">
<path d="M45.4247 202.965V197.593C45.4247 197.296 45.654 197.055 45.937 197.055H47.9861C48.2691 197.055 48.4984 197.296 48.4984 197.593V202.965M45.4247 202.965H37.816M45.4247 202.965H48.4984M48.4984 202.965H50.9842M50.0353 202.965V194.619M38.7648 202.965V194.619M38.7648 194.619C39.5485 195.094 40.5679 194.98 41.2384 194.277C41.2689 194.245 41.2982 194.212 41.3264 194.179C41.7018 194.625 42.2512 194.906 42.8632 194.906C43.4752 194.906 44.0246 194.625 44.4001 194.179C44.7756 194.625 45.3249 194.906 45.937 194.906C46.5489 194.906 47.0982 194.625 47.4737 194.179C47.5018 194.212 47.5311 194.245 47.5615 194.277C48.2321 194.98 49.2516 195.094 50.0353 194.619M38.7648 194.619C38.6131 194.527 38.4702 194.413 38.3404 194.277C37.5402 193.438 37.5402 192.077 38.3404 191.238L39.1528 190.386C39.3449 190.184 39.6055 190.071 39.8773 190.071H48.9227C49.1945 190.071 49.4551 190.184 49.6472 190.386L50.4595 191.238C51.2598 192.077 51.2598 193.438 50.4595 194.277C50.3298 194.413 50.187 194.527 50.0353 194.619M40.814 200.816H43.3755C43.6584 200.816 43.8878 200.576 43.8878 200.279V197.593C43.8878 197.296 43.6584 197.055 43.3755 197.055H40.814C40.5311 197.055 40.3017 197.296 40.3017 197.593V200.279C40.3017 200.576 40.5311 200.816 40.814 200.816Z" stroke="#0F172A" stroke-width="1.5" stroke-linecap="round" stroke-linejoin="round"/>
</g>
<path d="M156.92 70.5022C158.214 70.3412 159.462 70.0222 160.646 69.5639C159.664 68.4215 159.067 66.909 159.067 65.2503V64.7483C159.067 64.7365 159.067 64.7248 159.067 64.713C159.067 62.3393 157.232 60.415 154.969 60.415C152.705 60.415 150.87 62.3393 150.87 64.713L150.87 65.2503C150.87 66.909 150.273 68.4215 149.292 69.5639C150.475 70.0222 151.723 70.3413 153.017 70.5023M156.92 70.5022C156.28 70.5818 155.629 70.6228 154.969 70.6228C154.308 70.6228 153.657 70.5818 153.017 70.5023M156.92 70.5022C156.984 70.7095 157.018 70.9306 157.018 71.16C157.018 72.3469 156.101 73.309 154.969 73.309C153.837 73.309 152.92 72.3469 152.92 71.16C152.92 70.9306 152.954 70.7096 153.017 70.5023M148.906 63.6385C149.102 62.4119 149.629 61.3027 150.387 60.415M159.551 60.415C160.309 61.3027 160.835 62.4119 161.031 63.6385" stroke="#0F172A" stroke-width="1.5" stroke-linecap="round" stroke-linejoin="round"/>
<path d="M118.67 29.6712C119.964 29.5102 121.212 29.1911 122.396 28.7329C121.414 27.5904 120.817 26.078 120.817 24.4192V23.9172C120.817 23.9055 120.817 23.8937 120.817 23.882C120.817 21.5083 118.982 19.584 116.719 19.584C114.455 19.584 112.62 21.5083 112.62 23.882L112.62 24.4192C112.62 26.078 112.023 27.5904 111.042 28.7329C112.225 29.1912 113.473 29.5102 114.767 29.6712M118.67 29.6712C118.03 29.7508 117.379 29.7917 116.719 29.7917C116.058 29.7917 115.407 29.7508 114.767 29.6712M118.67 29.6712C118.734 29.8785 118.768 30.0995 118.768 30.329C118.768 31.5158 117.851 32.478 116.719 32.478C115.587 32.478 114.67 31.5158 114.67 30.329C114.67 30.0995 114.704 29.8785 114.767 29.6712M110.656 22.8075C110.852 21.5809 111.379 20.4717 112.137 19.584M121.301 19.584C122.059 20.4717 122.585 21.5809 122.781 22.8075" stroke="white" stroke-opacity="0.5" stroke-width="1.5" stroke-linecap="round" stroke-linejoin="round"/>
<g clip-path="url(#clip2_317_2086)">
<path d="M198.558 184.788V180.535C198.558 180.3 198.74 180.11 198.964 180.11H200.586C200.81 180.11 200.992 180.3 200.992 180.535V184.788M198.558 184.788H192.535M198.558 184.788H200.992M200.992 184.788H202.959M202.208 184.788V178.181M193.286 184.788V178.181M193.286 178.181C193.906 178.557 194.713 178.467 195.244 177.91C195.268 177.885 195.291 177.859 195.314 177.832C195.611 178.186 196.046 178.408 196.53 178.408C197.015 178.408 197.45 178.186 197.747 177.832C198.044 178.186 198.479 178.408 198.964 178.408C199.448 178.408 199.883 178.186 200.18 177.833C200.203 177.859 200.226 177.885 200.25 177.91C200.781 178.467 201.588 178.557 202.208 178.181M193.286 178.181C193.166 178.108 193.053 178.018 192.95 177.91C192.316 177.246 192.316 176.169 192.95 175.504L193.593 174.83C193.745 174.67 193.951 174.581 194.166 174.581H201.327C201.543 174.581 201.749 174.67 201.901 174.83L202.544 175.504C203.178 176.169 203.178 177.246 202.544 177.91C202.441 178.018 202.328 178.108 202.208 178.181M194.908 183.087H196.936C197.16 183.087 197.341 182.897 197.341 182.662V180.535C197.341 180.3 197.16 180.11 196.936 180.11H194.908C194.684 180.11 194.502 180.3 194.502 180.535V182.662C194.502 182.897 194.684 183.087 194.908 183.087Z" stroke="white" stroke-opacity="0.5" stroke-width="1.5" stroke-linecap="round" stroke-linejoin="round"/>
</g>
<path d="M226.926 172.028L226.923 172.026L226.91 172.02C226.9 172.015 226.885 172.007 226.866 171.997C226.828 171.977 226.773 171.948 226.703 171.909C226.565 171.833 226.368 171.72 226.133 171.573C225.664 171.281 225.037 170.85 224.408 170.3C223.164 169.212 221.846 167.595 221.846 165.604C221.846 164.118 223.178 162.94 224.786 162.94C225.732 162.94 226.579 163.345 227.118 163.981C227.658 163.345 228.504 162.94 229.45 162.94C231.058 162.94 232.39 164.118 232.39 165.604C232.39 167.595 231.072 169.212 229.828 170.3C229.199 170.85 228.572 171.281 228.103 171.573C227.868 171.72 227.672 171.833 227.533 171.909C227.463 171.948 227.409 171.977 227.37 171.997C227.351 172.007 227.336 172.015 227.326 172.02L227.314 172.026L227.31 172.028L227.309 172.029C227.19 172.088 227.047 172.088 226.928 172.029L226.926 172.028Z" fill="white" fill-opacity="0.5"/>
<path d="M71.4798 226.54L71.4754 226.537L71.4599 226.529C71.4467 226.521 71.4279 226.51 71.4037 226.496C71.3555 226.468 71.286 226.427 71.1984 226.373C71.0232 226.264 70.7751 226.105 70.4782 225.898C69.8854 225.485 69.0934 224.878 68.2992 224.101C66.7277 222.565 65.0625 220.282 65.0625 217.471C65.0625 215.373 66.7453 213.71 68.7766 213.71C69.9712 213.71 71.0409 214.282 71.7223 215.18C72.4038 214.282 73.4734 213.71 74.668 213.71C76.6994 213.71 78.3822 215.373 78.3822 217.471C78.3822 220.282 76.717 222.565 75.1454 224.101C74.3513 224.878 73.5593 225.485 72.9665 225.898C72.6696 226.105 72.4214 226.264 72.2463 226.373C72.1587 226.427 72.0892 226.468 72.0409 226.496C72.0168 226.51 71.998 226.521 71.9848 226.529L71.9693 226.537L71.9648 226.54L71.963 226.541C71.8127 226.625 71.632 226.625 71.4817 226.541L71.4798 226.54Z" fill="#0F172A"/>
<path fill-rule="evenodd" clip-rule="evenodd" d="M147.896 180.042C145.76 180.042 143.66 180.204 141.607 180.516C139.867 180.781 138.662 182.357 138.662 184.126V189.6C138.662 191.37 139.867 192.945 141.607 193.21C142.377 193.327 143.155 193.423 143.938 193.497V197.094C143.938 197.37 144.099 197.619 144.345 197.724C144.592 197.83 144.876 197.771 145.064 197.576L148.743 193.772C148.803 193.71 148.886 193.672 148.977 193.67C150.741 193.625 152.479 193.469 154.184 193.21C155.924 192.946 157.129 191.37 157.129 189.6V184.126C157.129 182.356 155.924 180.781 154.184 180.516C152.132 180.204 150.032 180.042 147.896 180.042ZM144.598 185.84C144.052 185.84 143.609 186.298 143.609 186.863C143.609 187.428 144.052 187.886 144.598 187.886C145.144 187.886 145.587 187.428 145.587 186.863C145.587 186.298 145.144 185.84 144.598 185.84ZM146.906 186.863C146.906 186.298 147.349 185.84 147.896 185.84C148.442 185.84 148.885 186.298 148.885 186.863C148.885 187.428 148.442 187.886 147.896 187.886C147.349 187.886 146.906 187.428 146.906 186.863ZM151.193 185.84C150.647 185.84 150.204 186.298 150.204 186.863C150.204 187.428 150.647 187.886 151.193 187.886C151.74 187.886 152.182 187.428 152.182 186.863C152.182 186.298 151.74 185.84 151.193 185.84Z" fill="#41474E" fill-opacity="0.5"/>
<path d="M184.097 143.746C184.097 144.123 183.801 144.428 183.437 144.428C183.073 144.428 182.778 144.123 182.778 143.746C182.778 143.369 183.073 143.064 183.437 143.064C183.801 143.064 184.097 143.369 184.097 143.746Z" fill="white" fill-opacity="0.5"/>
<path d="M179.48 146.474C179.844 146.474 180.14 146.169 180.14 145.792C180.14 145.416 179.844 145.11 179.48 145.11C179.116 145.11 178.82 145.416 178.82 145.792C178.82 146.169 179.116 146.474 179.48 146.474Z" fill="white" fill-opacity="0.5"/>
<path d="M180.14 147.839C180.14 148.215 179.844 148.521 179.48 148.521C179.116 148.521 178.82 148.215 178.82 147.839C178.82 147.462 179.116 147.156 179.48 147.156C179.844 147.156 180.14 147.462 180.14 147.839Z" fill="white" fill-opacity="0.5"/>
<path d="M181.459 146.474C181.823 146.474 182.118 146.169 182.118 145.792C182.118 145.416 181.823 145.11 181.459 145.11C181.094 145.11 180.799 145.416 180.799 145.792C180.799 146.169 181.094 146.474 181.459 146.474Z" fill="white" fill-opacity="0.5"/>
<path d="M182.118 147.839C182.118 148.215 181.823 148.521 181.459 148.521C181.094 148.521 180.799 148.215 180.799 147.839C180.799 147.462 181.094 147.156 181.459 147.156C181.823 147.156 182.118 147.462 182.118 147.839Z" fill="white" fill-opacity="0.5"/>
<path d="M183.437 146.474C183.801 146.474 184.097 146.169 184.097 145.792C184.097 145.416 183.801 145.11 183.437 145.11C183.073 145.11 182.778 145.416 182.778 145.792C182.778 146.169 183.073 146.474 183.437 146.474Z" fill="white" fill-opacity="0.5"/>
<path d="M184.097 147.839C184.097 148.215 183.801 148.521 183.437 148.521C183.073 148.521 182.778 148.215 182.778 147.839C182.778 147.462 183.073 147.156 183.437 147.156C183.801 147.156 184.097 147.462 184.097 147.839Z" fill="white" fill-opacity="0.5"/>
<path d="M185.416 146.474C185.78 146.474 186.075 146.169 186.075 145.792C186.075 145.416 185.78 145.11 185.416 145.11C185.052 145.11 184.756 145.416 184.756 145.792C184.756 146.169 185.052 146.474 185.416 146.474Z" fill="white" fill-opacity="0.5"/>
<path d="M186.075 147.839C186.075 148.215 185.78 148.521 185.416 148.521C185.052 148.521 184.756 148.215 184.756 147.839C184.756 147.462 185.052 147.156 185.416 147.156C185.78 147.156 186.075 147.462 186.075 147.839Z" fill="white" fill-opacity="0.5"/>
<path d="M187.394 146.474C187.759 146.474 188.054 146.169 188.054 145.792C188.054 145.416 187.759 145.11 187.394 145.11C187.03 145.11 186.735 145.416 186.735 145.792C186.735 146.169 187.03 146.474 187.394 146.474Z" fill="white" fill-opacity="0.5"/>
<path d="M186.075 143.746C186.075 144.123 185.78 144.428 185.416 144.428C185.052 144.428 184.756 144.123 184.756 143.746C184.756 143.369 185.052 143.064 185.416 143.064C185.78 143.064 186.075 143.369 186.075 143.746Z" fill="white" fill-opacity="0.5"/>
<path d="M187.394 144.428C187.759 144.428 188.054 144.123 188.054 143.746C188.054 143.369 187.759 143.064 187.394 143.064C187.03 143.064 186.735 143.369 186.735 143.746C186.735 144.123 187.03 144.428 187.394 144.428Z" fill="white" fill-opacity="0.5"/>
<path fill-rule="evenodd" clip-rule="evenodd" d="M178.82 134.197C179.185 134.197 179.48 134.503 179.48 134.879V136.243H187.394V134.879C187.394 134.503 187.69 134.197 188.054 134.197C188.418 134.197 188.713 134.503 188.713 134.879V136.243H189.373C190.83 136.243 192.011 137.465 192.011 138.972V149.203C192.011 150.709 190.83 151.931 189.373 151.931H177.501C176.044 151.931 174.863 150.709 174.863 149.203V138.972C174.863 137.465 176.044 136.243 177.501 136.243H178.161V134.879C178.161 134.503 178.456 134.197 178.82 134.197ZM190.692 142.382C190.692 141.629 190.101 141.018 189.373 141.018H177.501C176.773 141.018 176.182 141.629 176.182 142.382V149.203C176.182 149.956 176.773 150.567 177.501 150.567H189.373C190.101 150.567 190.692 149.956 190.692 149.203V142.382Z" fill="white" fill-opacity="0.5"/>
<path d="M69.5653 161.768C69.5653 166.22 66.2708 169.833 62.2114 169.833C58.152 169.833 54.8574 166.22 54.8574 161.768C54.8574 157.317 58.152 153.704 62.2114 153.704C66.2708 153.704 69.5653 157.317 69.5653 161.768Z" stroke="#292D32" stroke-width="1.5" stroke-linecap="round" stroke-linejoin="round"/>
<path d="M64.9399 164.333L62.6601 162.841C62.263 162.583 61.9395 161.962 61.9395 161.454V158.147" stroke="#292D32" stroke-width="1.5" stroke-linecap="round" stroke-linejoin="round"/>
<path d="M20.933 170.666L20.9285 170.664L20.913 170.655C20.8998 170.648 20.881 170.637 20.8569 170.623C20.8086 170.594 20.7391 170.553 20.6515 170.499C20.4763 170.391 20.2282 170.232 19.9313 170.025C19.3385 169.612 18.5465 169.004 17.7524 168.228C16.1808 166.691 14.5156 164.409 14.5156 161.597C14.5156 159.5 16.1984 157.836 18.2298 157.836C19.4244 157.836 20.494 158.409 21.1755 159.306C21.8569 158.409 22.9266 157.836 24.1212 157.836C26.1525 157.836 27.8353 159.5 27.8353 161.597C27.8353 164.409 26.1701 166.691 24.5986 168.228C23.8044 169.004 23.0124 169.612 22.4196 170.025C22.1227 170.232 21.8746 170.391 21.6994 170.499C21.6118 170.553 21.5423 170.594 21.4941 170.623C21.4699 170.637 21.4511 170.648 21.4379 170.655L21.4224 170.664L21.418 170.666L21.4161 170.667C21.2658 170.751 21.0851 170.751 20.9348 170.667L20.933 170.666Z" fill="white" fill-opacity="0.5"/>
<path d="M218.364 118.803C218.364 123.255 215.07 126.868 211.01 126.868C206.951 126.868 203.656 123.255 203.656 118.803C203.656 114.351 206.951 110.738 211.01 110.738C215.07 110.738 218.364 114.351 218.364 118.803Z" stroke="white" stroke-opacity="0.5" stroke-width="1.5" stroke-linecap="round" stroke-linejoin="round"/>
<path d="M213.739 121.368L211.459 119.876C211.062 119.618 210.738 118.997 210.738 118.489V115.182" stroke="white" stroke-opacity="0.5" stroke-width="1.5" stroke-linecap="round" stroke-linejoin="round"/>
<path fill-rule="evenodd" clip-rule="evenodd" d="M124.317 159.985C122.79 159.985 121.291 160.114 119.83 160.361C118.848 160.526 118.17 161.428 118.17 162.439V166.127C118.17 167.139 118.848 168.04 119.83 168.206C120.409 168.304 120.994 168.383 121.585 168.443V170.909C121.585 171.127 121.71 171.323 121.901 171.406C122.093 171.489 122.313 171.443 122.46 171.289L124.904 168.726C124.997 168.628 125.126 168.57 125.265 168.565C126.465 168.523 127.647 168.402 128.805 168.206C129.786 168.04 130.465 167.139 130.465 166.127V162.439C130.465 161.428 129.786 160.526 128.805 160.361C127.344 160.114 125.845 159.985 124.317 159.985ZM124.317 165C124.695 165 125.001 164.679 125.001 164.283C125.001 163.888 124.695 163.567 124.317 163.567C123.94 163.567 123.634 163.888 123.634 164.283C123.634 164.679 123.94 165 124.317 165ZM122.951 164.283C122.951 164.679 122.646 165 122.268 165C121.891 165 121.585 164.679 121.585 164.283C121.585 163.888 121.891 163.567 122.268 163.567C122.646 163.567 122.951 163.888 122.951 164.283ZM126.367 165C126.744 165 127.05 164.679 127.05 164.283C127.05 163.888 126.744 163.567 126.367 163.567C125.989 163.567 125.684 163.888 125.684 164.283C125.684 164.679 125.989 165 126.367 165Z" fill="#0F172A"/>
<path fill-rule="evenodd" clip-rule="evenodd" d="M155.373 118.975C154.713 120.174 155.105 121.708 156.248 122.4C157.24 123 158.47 122.771 159.21 121.919L159.814 122.284C159.831 122.35 159.914 122.368 159.957 122.316C160.06 122.189 160.174 122.073 160.299 121.969C160.494 121.804 160.503 121.461 160.286 121.329L159.723 120.988C160.057 119.89 159.63 118.658 158.639 118.058C157.496 117.365 156.034 117.776 155.373 118.975ZM156.761 121.469C156.107 121.074 155.884 120.198 156.261 119.512C156.638 118.827 157.473 118.592 158.127 118.988C158.78 119.384 159.004 120.26 158.627 120.945C158.25 121.63 157.414 121.865 156.761 121.469Z" fill="white" fill-opacity="0.5"/>
<path fill-rule="evenodd" clip-rule="evenodd" d="M161.17 122.25C160.636 122.486 160.236 122.968 160.086 123.555L159.814 124.62L159.211 124.986C158.47 124.133 157.24 123.904 156.248 124.505C155.105 125.197 154.713 126.73 155.373 127.929C156.034 129.129 157.496 129.539 158.639 128.847C159.63 128.247 160.057 127.015 159.723 125.916L167.017 121.5C167.197 121.391 167.296 121.18 167.269 120.965C167.242 120.749 167.094 120.572 166.894 120.516L166.413 120.381C166.01 120.267 165.582 120.298 165.197 120.469L161.17 122.25ZM156.261 127.392C155.884 126.707 156.107 125.831 156.761 125.435C157.414 125.039 158.25 125.274 158.627 125.959C159.004 126.645 158.78 127.521 158.127 127.917C157.473 128.312 156.638 128.077 156.261 127.392Z" fill="white" fill-opacity="0.5"/>
<path d="M162.922 124.806C162.678 124.954 162.7 125.331 162.96 125.446L165.197 126.436C165.582 126.606 166.01 126.637 166.413 126.524L166.893 126.389C167.093 126.333 167.242 126.155 167.269 125.94C167.296 125.725 167.196 125.513 167.017 125.405L164.646 123.969C164.541 123.905 164.41 123.905 164.305 123.969L162.922 124.806Z" fill="white" fill-opacity="0.5"/>
<path fill-rule="evenodd" clip-rule="evenodd" d="M140.346 12.9581C139.686 14.1573 140.078 15.6906 141.221 16.383C142.212 16.9831 143.443 16.7543 144.183 15.9017L144.786 16.267C144.803 16.3333 144.887 16.3507 144.929 16.2986C145.032 16.1724 145.147 16.0562 145.271 15.9518C145.467 15.7874 145.476 15.4438 145.259 15.3124L144.695 14.9711C145.029 13.8726 144.603 12.6405 143.612 12.0404C142.468 11.3481 141.006 11.7589 140.346 12.9581ZM141.733 15.4524C141.08 15.0568 140.856 14.1806 141.233 13.4954C141.611 12.8101 142.446 12.5753 143.1 12.971C143.753 13.3666 143.977 14.2428 143.6 14.928C143.222 15.6132 142.387 15.848 141.733 15.4524Z" fill="white" fill-opacity="0.5"/>
<path fill-rule="evenodd" clip-rule="evenodd" d="M146.143 16.233C145.609 16.4693 145.209 16.9509 145.059 17.5381L144.787 18.6034L144.183 18.9688C143.443 18.1161 142.212 17.8873 141.221 18.4874C140.078 19.1798 139.686 20.7131 140.346 21.9123C141.006 23.1114 142.468 23.5223 143.612 22.83C144.603 22.2299 145.029 20.9979 144.695 19.8993L151.99 15.4828C152.169 15.3742 152.269 15.1629 152.242 14.9474C152.214 14.732 152.066 14.5549 151.866 14.4986L151.386 14.3636C150.982 14.2503 150.554 14.2812 150.17 14.4514L146.143 16.233ZM141.233 21.375C140.856 20.6898 141.08 19.8136 141.733 19.418C142.387 19.0224 143.222 19.2571 143.6 19.9424C143.977 20.6276 143.753 21.5038 143.1 21.8994C142.446 22.295 141.611 22.0603 141.233 21.375Z" fill="white" fill-opacity="0.5"/>
<path d="M147.895 18.7892C147.651 18.9372 147.673 19.3144 147.933 19.4294L150.169 20.4189C150.554 20.5892 150.982 20.6201 151.386 20.5067L151.866 20.3718C152.066 20.3155 152.214 20.1384 152.241 19.9229C152.268 19.7075 152.169 19.4962 151.99 19.3875L149.619 17.9522C149.513 17.8882 149.383 17.8882 149.277 17.9522L147.895 18.7892Z" fill="white" fill-opacity="0.5"/>
<path d="M153.176 35.8874C153.176 37.0343 153.943 38.0326 155.025 38.1995C155.672 38.2992 156.326 38.3792 156.984 38.4387C157.46 38.4818 157.894 38.7364 158.151 39.1399L159.836 41.7905L161.521 39.1399C161.777 38.7365 162.211 38.4818 162.687 38.4388C163.346 38.3793 163.999 38.2993 164.646 38.1995C165.728 38.0327 166.495 37.0344 166.495 35.8875V31.576C166.495 30.429 165.728 29.4307 164.646 29.2639C163.076 29.0219 161.47 28.8965 159.836 28.8965C158.202 28.8965 156.595 29.0219 155.025 29.264C153.943 29.4308 153.176 30.4291 153.176 31.576V35.8874Z" stroke="#0F172A" stroke-width="1.5" stroke-linecap="round" stroke-linejoin="round"/>
<g clip-path="url(#clip3_317_2086)">
<path fill-rule="evenodd" clip-rule="evenodd" d="M23.519 123.111C24.9806 122.864 26.4796 122.736 28.0069 122.736C29.5342 122.736 31.0333 122.864 32.4948 123.111C33.4759 123.277 34.1545 124.178 34.1545 125.19V128.878C34.1545 129.89 33.4759 130.791 32.4948 130.957C31.6971 131.091 30.8881 131.191 30.0695 131.253C29.8784 131.268 29.7137 131.382 29.6309 131.549L28.4614 133.908C28.3733 134.086 28.198 134.197 28.0069 134.197C27.8158 134.197 27.6406 134.086 27.5524 133.908L26.3829 131.549C26.3001 131.382 26.1354 131.268 25.9443 131.253C25.1257 131.191 24.3168 131.091 23.519 130.957C22.5379 130.791 21.8594 129.89 21.8594 128.878V125.19C21.8594 124.178 22.5379 123.277 23.519 123.111Z" fill="#0F172A"/>
</g>
<defs>
<clipPath id="clip0_317_2086">
<rect width="13.6612" height="14.3266" fill="white" transform="translate(19.125 218.725)"/>
</clipPath>
<clipPath id="clip1_317_2086">
<rect width="16.3934" height="17.192" fill="white" transform="translate(36.2031 187.922)"/>
</clipPath>
<clipPath id="clip2_317_2086">
<rect width="12.9781" height="13.6103" fill="white" transform="translate(191.258 172.879)"/>
</clipPath>
<clipPath id="clip3_317_2086">
<rect width="13.6612" height="14.3266" fill="white" transform="translate(21.1758 121.303)"/>
</clipPath>
</defs>
</svg>
